<svg width="60" height="60" viewBox="0 0 60 60" fill="none" xmlns="http://www.w3.org/2000/svg">
<path d="M52.0116 36.4701L54.4459 37.6166C56.7438 38.9232 56.1227 41.9159 56.1211 44.2185C53.1017 42.01 48.9217 41.9175 46.0231 44.3926C43.7519 46.3328 43.6452 49.382 39.7491 49.5059C35.6129 49.6377 35.2976 46.0097 32.5606 44.1212C29.8628 42.2594 26.1407 42.0084 23.2468 43.5691C19.8165 45.4184 19.186 49.9341 14.2812 49.4855C9.78121 49.0746 9.34517 44.0695 4.63809 43.6318C2.86568 43.4672 1.5199 43.8295 0.00158691 44.6859V39.7545C0.550563 37.9005 2.47041 36.9688 4.22871 36.5846H51.7795L52.0148 36.4669L52.0116 36.4701Z" fill="#8BCA8F"/>
<path d="M56.0034 47.3884C56.0866 47.5954 56.107 47.6801 56.1258 47.9091C56.2215 49.0416 56.2654 52.1002 56.0678 53.1464C55.8435 54.3322 54.6671 55.3062 53.4782 55.3705L2.75429 55.3752C1.31754 55.2513 0.442318 54.4796 0 53.1401V47.5045C1.58262 45.9736 3.42875 45.2223 5.59799 46.074C7.44412 46.8002 8.06368 48.4816 9.50827 49.6768C12.5637 52.2084 16.9571 52.2712 20.0659 49.7835C22.5363 47.8072 22.7951 45.0372 26.7116 44.6874C33.2005 44.1102 32.5339 50.1725 37.826 51.4163C40.4705 52.0374 43.4099 51.1497 45.198 49.0855C46.0921 48.0534 46.4293 46.8426 47.5476 45.9171C49.5553 44.2577 52.6139 44.242 54.6498 45.8622C54.998 46.1399 55.8466 47.001 56.0019 47.3853L56.0034 47.3884Z" fill="#8BCA8F"/>
<path d="M56.1211 44.2185C56.1211 45.0592 56.1321 45.9031 56.1227 46.7438C56.1211 46.943 56.198 47.2661 56.0035 47.3884C55.8482 47.0041 54.9996 46.1415 54.6514 45.8654C52.6155 44.2451 49.5569 44.2608 47.5492 45.9203C46.4293 46.8457 46.0937 48.055 45.1996 49.0887C43.4115 51.1528 40.4721 52.0406 37.8276 51.4195C32.5355 50.1757 33.2021 44.1134 26.7132 44.6906C22.7967 45.0388 22.5379 47.8104 20.0675 49.7867C16.9587 52.2743 12.5637 52.2116 9.50986 49.68C8.06527 48.4832 7.44571 46.8018 5.59958 46.0772C3.43034 45.2239 1.58421 45.9768 0.00158691 47.5076V44.6906C1.5199 43.8326 2.86568 43.4719 4.63809 43.6366C9.34517 44.0742 9.78121 49.0793 14.2812 49.4902C19.186 49.9388 19.8165 45.4231 23.2468 43.5738C26.1407 42.0132 29.8628 42.2641 32.5606 44.1259C35.2976 46.0144 35.6129 49.6424 39.7491 49.5106C43.6468 49.3867 43.7519 46.3375 46.0231 44.3973C48.9217 41.9206 53.1017 42.0132 56.1211 44.2232V44.2185Z" fill="#B9C94A"/>
<path d="M21.7191 8.29187C22.0422 7.66604 22.4437 7.06217 22.7229 6.40967L28.3037 9.41806C26.1517 13.6969 23.8177 17.9241 21.5528 22.159C21.4854 22.2845 21.512 22.4492 21.4854 22.4978C21.0337 23.3432 20.5255 24.242 20.0769 25.0811C19.8212 25.5595 19.5138 26.1226 19.255 26.6073C19.1797 26.75 18.9883 26.9163 18.8832 27.1155C17.768 29.2 16.6465 31.2893 15.616 33.4162C13.1911 33.4193 10.7615 33.4068 8.33661 33.4162C8.79148 32.5739 9.17733 31.6767 9.62749 30.8328C9.89413 30.3341 10.3192 29.8039 10.567 29.3067C10.6658 29.5012 10.8164 29.6408 10.9984 29.7569C11.3403 29.9749 13.2994 31.0415 13.5456 31.0383C13.9597 31.032 14.0805 30.4188 13.8248 30.1584C13.726 30.058 11.5583 28.8754 11.3544 28.8079C11.138 28.7358 11.0093 28.6762 10.8039 28.8377C10.8431 28.7216 10.8462 28.5915 10.9215 28.4848C11.2713 27.8072 11.7387 27.1563 12.0963 26.4881C12.1936 26.6842 12.3473 26.8206 12.5277 26.9383C12.9025 27.1829 14.5683 28.1178 14.9149 28.2025C15.3306 28.3044 15.7227 27.6535 15.2992 27.3037C15.0012 27.0575 13.3778 26.2073 12.9621 26.0317C12.7488 25.9423 12.5731 25.8638 12.3316 25.8999C12.7096 25.1894 13.1268 24.4945 13.5064 23.7871C14.1652 24.0397 16.107 25.5015 16.714 25.2992C16.8928 25.2396 17.0653 24.9133 16.9759 24.7298C16.7908 24.3487 14.4255 23.1048 13.8577 23.0829C14.1856 22.4696 14.4679 21.8155 14.7973 21.2038C14.8757 21.0579 15.0702 20.8807 15.1502 20.7348C15.1627 20.9826 15.3274 21.1238 15.5094 21.2556C15.8309 21.4877 17.2865 22.3174 17.6206 22.4304C18.3829 22.686 18.7562 22.1418 18.2668 21.6681C18.0582 21.4657 16.3626 20.545 16.0176 20.3945C15.8058 20.3019 15.6207 20.2329 15.3839 20.2658C15.7964 19.5051 16.2293 18.7193 16.5587 17.9178H16.6763C16.6701 18.0025 16.6952 18.0746 16.7344 18.1484C16.8489 18.357 18.8425 19.5114 19.1467 19.6133C19.909 19.869 20.2823 19.3247 19.793 18.851C19.5671 18.6315 17.9186 17.7484 17.5437 17.5774C17.3335 17.4817 17.1453 17.4174 16.9101 17.4488C16.9163 17.4112 16.9053 17.3704 16.9101 17.3312C17.2018 16.9171 17.412 16.4528 17.641 16.0011C17.7194 15.8458 17.699 15.6325 17.7319 15.5697C17.7633 15.5117 18.0127 15.3533 18.0849 15.2168C18.2009 15.3627 18.3076 15.4913 18.4691 15.5948C18.7578 15.7783 20.5521 16.7853 20.756 16.8371C21.1858 16.9469 21.6062 16.7038 21.4744 16.2395C21.4117 16.0215 19.4212 14.9188 19.0699 14.7604C18.8597 14.6647 18.6715 14.6004 18.4362 14.6318C18.8299 13.8977 19.2111 13.1386 19.611 12.4014C19.7271 12.5472 19.8337 12.6758 19.9953 12.7794C20.3231 12.9864 22.0297 13.9573 22.2822 14.0216C22.712 14.1314 23.1323 13.8883 23.0006 13.424C22.9378 13.206 20.9474 12.1033 20.596 11.9449C20.3859 11.8492 20.1976 11.7849 19.9624 11.8163C20.1302 11.5057 20.2902 10.9866 20.4313 10.6415L21.1356 9.58432C21.1638 9.65334 21.3693 9.86195 21.4462 9.91684C21.6736 10.08 23.6233 11.156 23.8068 11.203C24.2867 11.3269 24.7212 10.9928 24.4844 10.5223C24.4201 10.3952 22.3183 9.19533 22.0422 9.08711C21.8179 8.99927 21.6093 8.97104 21.3693 8.9977C21.4948 8.76242 21.6014 8.52558 21.7222 8.29344L21.7191 8.29187Z" fill="#8EC9EE"/>
<path d="M5.40033 33.4178C6.37594 33.4021 7.3594 33.4225 8.33501 33.4178C10.7599 33.4084 13.1895 33.4209 15.6144 33.4178C18.1178 33.4146 20.6258 33.4178 23.1291 33.4178C24.4184 33.4178 25.714 33.4178 27.0033 33.4178C27.0426 33.4178 27.0818 33.4178 27.121 33.4178C28.2158 33.4178 29.3137 33.4178 30.4086 33.4178C32.09 33.4178 33.7761 33.4193 35.4576 33.4178C36.0034 33.4178 36.554 33.4178 37.1014 33.4178C38.5083 33.4162 39.9215 33.4209 41.3285 33.4178C42.0312 33.4162 42.7386 33.4209 43.4413 33.4178C43.9871 33.4162 44.5377 33.4209 45.0851 33.4178C45.6325 33.4146 46.183 33.4256 46.7289 33.4178C47.4708 33.4084 48.2174 33.4241 48.9593 33.4178C48.7773 33.6342 48.9467 33.686 49.0722 33.8287C49.9113 34.7824 50.9764 35.5902 51.7763 36.5877H4.22552V33.4178C4.61451 33.4131 5.00978 33.4241 5.40033 33.4178Z" fill="#349270"/>
<path d="M41.3269 14.0452C41.465 20.4949 41.2234 26.9665 41.3269 33.4178C39.92 33.4209 38.5068 33.4162 37.0998 33.4178C36.9665 33.2217 36.9853 33.0006 36.9775 32.7778C36.9085 30.8062 36.9571 28.7044 36.9822 26.725C37.0339 22.5402 37.0277 18.2582 37.0998 14.0452C37.7743 13.937 38.4534 13.5997 39.1546 13.5997C39.8965 13.5997 40.607 13.9589 41.3269 14.0452Z" fill="#F59487"/>
<path d="M11.1537 8.17419L11.1223 8.8408C12.6845 11.5261 14.0068 14.3933 15.5941 17.0582C15.8388 17.4691 16.0066 18.0448 16.554 17.9193C16.2246 18.7208 15.7933 19.5066 15.3792 20.2674C15.2945 20.4242 15.2255 20.5889 15.1439 20.7363C15.0624 20.8838 14.871 21.061 14.791 21.2053C9.82199 21.6194 5.40352 19.0941 4.81219 13.8663C4.29302 9.27371 6.56264 6.92095 11.1505 8.17262L11.1537 8.17419ZM14.7926 19.0925C13.4907 16.343 11.9128 13.7189 10.4525 11.0477C6.90615 9.15921 6.4952 12.7323 7.45669 15.3344C8.5766 18.3679 11.654 19.9991 14.7926 19.091V19.0925Z" fill="#F37B24"/>
<path d="M30.4086 33.4177C29.3138 33.4177 28.2158 33.4177 27.121 33.4177L30.1733 22.1464C30.9529 20.385 31.1207 17.993 31.8752 16.2755C32.4649 14.936 33.9409 13.4584 34.6342 12.1064C34.8161 11.9448 34.7487 12.2256 34.7518 12.3417C34.7942 13.8286 34.8271 15.3422 34.9902 16.8103L30.4071 33.4177H30.4086Z" fill="#F8B134"/>
<path d="M52.0116 36.47L51.7763 36.5876C50.9764 35.5901 49.9114 34.7823 49.0722 33.8286C48.9467 33.6859 48.7773 33.6342 48.9593 33.4177L49.4894 32.9487L56.314 25.3242C56.8128 25.7116 60 28.753 60 29.0133C59.8227 29.3772 59.4259 29.7223 59.1185 30.014C56.8049 32.2162 54.3471 34.2898 52.0116 36.4684V36.47ZM55.7352 28.3922C54.4585 28.673 54.8349 30.7763 56.2701 30.4595C57.5468 30.1787 57.1704 28.0754 55.7352 28.3922ZM53.9738 30.8516C53.8091 30.8971 51.6336 33.0664 51.5363 33.2358C51.1442 33.9102 51.7089 34.2412 52.3112 33.8945C52.4523 33.813 54.4679 31.6845 54.5369 31.5386C54.7282 31.1261 54.4051 30.734 53.9738 30.8532V30.8516Z" fill="#4CAF90"/>
<path d="M21.7191 8.29194C21.5983 8.52407 21.4932 8.76092 21.3662 8.99619C21.3003 9.12011 21.294 9.24245 21.2486 9.34911C21.1639 9.3397 21.1403 9.38989 21.1309 9.46675C21.1262 9.49968 21.1231 9.56399 21.1309 9.58438L20.4267 10.6416C19.9451 8.96953 17.5955 6.11642 15.6992 6.4411C14.6326 6.62462 14.0115 8.16175 14.2593 9.11854C15.3918 11.2799 16.7015 13.3613 17.7257 15.5729C17.6928 15.6357 17.7131 15.8506 17.6347 16.0043C17.4057 16.456 17.1955 16.9203 16.9038 17.3344L12.0697 8.60721C11.8893 8.21822 11.6854 8.26527 11.3858 8.17587C12.6437 1.46424 19.2581 3.84993 21.7175 8.2935L21.7191 8.29194Z" fill="#F37B24"/>
<path d="M30.1733 17.9194C30.3161 19.2433 30.0682 20.7961 30.1733 22.1466L27.121 33.4178C27.0818 33.4178 27.0426 33.4178 27.0034 33.4178V33.3002C27.3689 28.3845 26.5156 22.752 27.0034 17.9194H30.1733Z" fill="#C5649A"/>
<path d="M23.5981 26.8426C24.6945 29.0087 25.8976 31.1372 27.0034 33.3001V33.4178C25.714 33.4178 24.4185 33.4178 23.1291 33.4178L19.2549 26.6073C19.5137 26.1227 19.8212 25.5596 20.0768 25.0812L23.5997 26.8426H23.5981Z" fill="#D2D1D0"/>
<path d="M5.28269 31.1873C5.1274 29.4306 4.84194 27.6738 4.81213 25.903L10.5482 25.4497L10.9168 28.4863C10.8415 28.5914 10.8383 28.7216 10.7991 28.8392C10.7897 28.8643 10.6093 29.2204 10.5638 29.3082C10.316 29.807 9.89095 30.3356 9.6243 30.8344L5.27955 31.1873H5.28269Z" fill="#F5A7B7"/>
<path d="M46.7273 16.1579L45.0835 33.4178C44.5377 33.4209 43.9871 33.4162 43.4397 33.4178L45.0772 16.3242C45.0364 16.2019 45.1886 16.0889 45.2011 16.0419C45.7046 16.1187 46.2254 16.1125 46.7273 16.1595V16.1579Z" fill="#BE3E40"/>
<path d="M48.2535 16.2756C48.2833 16.6803 48.2378 17.1006 48.2535 17.5069L46.7289 33.4162C46.183 33.424 45.6309 33.4131 45.0851 33.4162L46.7289 16.1564C47.2198 16.2019 47.7233 16.3603 48.255 16.274L48.2535 16.2756Z" fill="#3E568A"/>
<path d="M37.0999 11.9308C37.2175 10.5474 37.8967 9.10438 38.0441 7.70998C38.1774 7.66449 38.5837 7.74605 38.6276 7.70527C38.7531 7.58607 38.306 5.66465 39.1515 5.5972C39.3507 5.58152 39.6832 5.80895 39.6832 6.00188V7.7037C39.6832 7.73194 40.182 7.65194 40.2588 7.71468C40.4251 7.85271 41.1466 11.4477 41.2093 11.9293C39.8526 11.2893 38.4582 11.3066 37.0999 11.9293V11.9308Z" fill="#E46C7B"/>
<path d="M36.9822 26.725C36.9571 28.7045 36.9085 30.8063 36.9775 32.7779C36.9853 33.0006 36.9665 33.2218 37.0998 33.4178C36.554 33.4178 36.0035 33.4178 35.4561 33.4178L35.4812 27.045C35.6364 26.3392 36.496 26.3219 36.9822 26.7266V26.725Z" fill="#8BCA8F"/>
<path d="M11.3873 8.17426C11.6885 8.26366 11.8908 8.21661 12.0712 8.6056L16.9053 17.3328C16.9006 17.372 16.9116 17.4127 16.9053 17.4504C16.8849 17.5884 16.6794 17.7986 16.67 17.9194H16.5524C16.005 18.0449 15.8372 17.4692 15.5925 17.0583C14.0036 14.3934 12.6829 11.5262 11.1207 8.84087L11.152 8.17426C11.2195 8.19308 11.323 8.15543 11.3873 8.17426Z" fill="#F8B134"/>
<path d="M41.2093 11.9308C41.3082 12.6915 41.3097 13.2624 41.327 14.0436C40.6086 13.9573 39.8965 13.5997 39.1546 13.5981C38.455 13.5981 37.7743 13.9353 37.0999 14.0436C37.1108 13.3597 37.0434 12.5958 37.0999 11.9308C38.4582 11.3081 39.8526 11.2908 41.2093 11.9308Z" fill="#D2D1D0"/>
<path d="M9.62749 30.8344C9.17733 31.6782 8.79148 32.5754 8.33661 33.4177C7.361 33.4224 6.37755 33.402 5.40194 33.4177C5.35959 32.6852 5.34861 31.9151 5.2843 31.1873L9.62906 30.8344H9.62749Z" fill="#E46C7B"/>
<path d="M30.1733 17.9194H27.0034C27.1477 16.4952 28.2237 14.5393 28.5891 13.1041C28.9609 14.5456 30.0196 16.4843 30.1749 17.9194H30.1733Z" fill="#F5A7B7"/>
<path d="M48.2535 16.2756C47.7218 16.3618 47.2183 16.2034 46.7273 16.1579C46.2364 16.1124 45.7047 16.1187 45.2012 16.0403C45.5604 14.6098 46.6332 12.9974 47.1383 11.5795C47.3688 11.8571 47.4065 12.2884 47.4928 12.6335C47.7531 13.6703 48.1766 15.2482 48.2535 16.2756Z" fill="#D2D1D0"/>
<path d="M23.5982 26.8426L20.0753 25.0811C20.5239 24.242 21.0321 23.3432 21.4838 22.4978C22.2587 23.9063 22.872 25.4105 23.5966 26.8426H23.5982Z" fill="#F37B24"/>
<path d="M12.3269 25.903C12.5684 25.8653 12.7441 25.9453 12.9574 26.0347C13.3731 26.2104 14.9965 27.0605 15.2945 27.3068C15.718 27.655 15.3243 28.3075 14.9102 28.2055C14.5636 28.1208 12.8978 27.186 12.523 26.9413C12.3426 26.8237 12.1904 26.6872 12.0916 26.4912C12.1716 26.3437 12.2202 26.1037 12.3269 25.9045V25.903Z" fill="#54A8D7"/>
<path d="M13.5016 23.7902C13.6209 23.5675 13.7275 23.3196 13.8546 23.0859C14.4224 23.1079 16.7861 24.3517 16.9727 24.7329C17.0622 24.9164 16.8896 25.2426 16.7108 25.3022C16.1038 25.5061 14.162 24.0427 13.5032 23.7902H13.5016Z" fill="#54A8D7"/>
<path d="M10.8007 28.8378C11.0062 28.6762 11.1348 28.7358 11.3513 28.808C11.5552 28.8754 13.7244 30.0581 13.8217 30.1584C14.0774 30.4188 13.9581 31.0321 13.5425 31.0384C13.2962 31.0415 11.3372 29.9749 10.9952 29.7569C10.8133 29.6408 10.6627 29.5012 10.5639 29.3067C10.6078 29.2173 10.7898 28.8629 10.7992 28.8378H10.8007Z" fill="#54A8D7"/>
<path d="M19.6063 12.4013C19.7302 12.1723 19.8745 11.97 19.9592 11.8147C20.1945 11.7849 20.3827 11.8492 20.5929 11.9433C20.9427 12.1033 22.9347 13.206 22.9974 13.4224C23.1292 13.8867 22.7104 14.1298 22.2791 14.02C22.0265 13.9557 20.32 12.9864 19.9922 12.7778C19.8306 12.6743 19.724 12.5457 19.6079 12.3998L19.6063 12.4013Z" fill="#54A8D7"/>
<path d="M21.1325 9.58278C21.1246 9.56239 21.1278 9.49808 21.1325 9.46514C21.1748 9.43377 21.2297 9.39613 21.2501 9.34751C21.294 9.24085 21.3019 9.1185 21.3677 8.99459C21.6062 8.9695 21.8163 8.99616 22.0406 9.084C22.3167 9.19222 24.42 10.3921 24.4828 10.5192C24.7196 10.9897 24.2852 11.3223 23.8052 11.1999C23.6201 11.1529 21.672 10.0784 21.4446 9.91373C21.3693 9.85884 21.1623 9.64866 21.134 9.58121L21.1325 9.58278Z" fill="#54A8D7"/>
<path d="M18.0801 15.2184C18.2056 14.9831 18.3515 14.7839 18.4331 14.6317C18.6683 14.6019 18.8566 14.6663 19.0667 14.7604C19.4165 14.9204 21.4085 16.023 21.4712 16.2395C21.603 16.7037 21.1842 16.9469 20.7529 16.8371C20.549 16.7853 18.7546 15.7799 18.466 15.5948C18.3044 15.4913 18.1978 15.3627 18.0817 15.2168L18.0801 15.2184Z" fill="#54A8D7"/>
<path d="M15.1454 20.738C15.2254 20.5889 15.2945 20.4258 15.3807 20.269C15.6176 20.236 15.8026 20.3066 16.0144 20.3976C16.361 20.5482 18.055 21.4689 18.2636 21.6712C18.753 22.1449 18.3797 22.6907 17.6174 22.4335C17.2817 22.3206 15.8262 21.4908 15.5062 21.2587C15.3243 21.1269 15.1596 20.9842 15.147 20.738H15.1454Z" fill="#54A8D7"/>
<path d="M16.6716 17.9195C16.6795 17.7987 16.8849 17.5869 16.9069 17.4505C17.1422 17.4207 17.3304 17.485 17.5406 17.5791C17.9155 17.7501 19.564 18.6331 19.7898 18.8527C20.2792 19.3264 19.9059 19.8722 19.1436 19.615C18.8377 19.5131 16.8457 18.3586 16.7312 18.15C16.692 18.0763 16.6669 18.0042 16.6732 17.9195H16.6716Z" fill="#54A8D7"/>
<path d="M53.9738 30.8518C54.4036 30.7326 54.7267 31.1247 54.5369 31.5372C54.4694 31.6846 52.4523 33.8131 52.3112 33.8931C51.7089 34.2413 51.1442 33.9088 51.5363 33.2343C51.6352 33.0649 53.8107 30.8957 53.9738 30.8502V30.8518Z" fill="#8BCA8F"/>
<path d="M21.1324 9.46664C21.1419 9.39135 21.1654 9.33959 21.2501 9.349C21.2297 9.39763 21.1748 9.43527 21.1324 9.46664Z" fill="#8EC9EE"/>
</svg>
