<svg width="60" height="67" viewBox="0 0 60 67" fill="none" xmlns="http://www.w3.org/2000/svg">
<path d="M30.7408 0.0107503C36.2176 0.767427 39.9637 9.49698 41.3221 14.1689C41.6721 15.3751 41.9583 16.7045 42.2255 17.935C42.7892 20.5382 43.265 23.466 43.5167 26.1178C43.6701 27.7544 43.7322 29.535 43.7753 31.1838C43.8184 32.8602 43.8063 34.5732 43.7753 36.2497C43.7425 38.0112 43.6667 39.5627 43.5167 41.3156C43.2926 43.9431 43.015 46.6575 42.4841 49.2381C42.2289 50.4808 41.8048 51.7806 41.4514 53.0042C39.9534 58.2002 36.5366 66.8309 29.9667 66.5133V62.6171C33.5576 62.9312 36.3159 56.2461 37.2296 53.497C37.3951 53.0024 37.4468 52.4228 37.5795 51.9663C37.9484 50.7029 38.3415 49.5106 38.6122 48.2003C38.8966 46.8223 39.0742 45.4391 39.2569 44.0438C39.4724 42.4037 39.6724 40.762 39.7723 39.108C39.8017 38.6342 39.9016 37.8533 39.9016 37.4836V30.9894C39.9016 30.1077 39.7155 28.8703 39.6431 27.9366C39.5034 26.1283 39.2621 24.6323 38.9983 22.8707C38.7966 21.5222 38.6415 20.33 38.3536 18.9745C38.0657 17.6191 37.7019 16.491 37.3209 15.2085C37.2778 15.0645 37.3365 14.7937 37.2623 14.556C36.328 11.557 33.5111 4.37379 29.965 3.90694V0.0107503C30.215 0.0333118 30.4994 -0.0222241 30.739 0.0107503H30.7408Z" fill="#0F375D"/>
<path d="M29.9667 0.0107422V3.90693C26.6033 3.46438 23.914 9.61498 22.9952 12.1523C22.6745 13.0356 22.4746 13.9312 22.2229 14.818C21.8384 16.1717 21.5954 17.2026 21.3195 18.584C21.042 19.9759 20.8593 21.0693 20.6748 22.4802C20.4628 24.0908 20.2559 25.6597 20.1594 27.2858C20.1369 27.6537 20.0301 28.2855 20.0301 28.5198V36.1837C20.0301 36.9248 20.2231 38.0424 20.2886 38.846C20.4335 40.6439 20.6662 42.1521 20.9334 43.9119C21.1334 45.2291 21.2971 46.2305 21.5781 47.5495C21.854 48.839 22.1022 50.0382 22.4815 51.3155C23.3796 54.3457 26.2741 62.2925 29.9667 62.6153V66.5115C23.8744 66.2165 20.0801 57.3984 18.6113 52.3533C18.2906 51.2548 17.9527 49.7258 17.7079 48.5873C17.1563 46.0292 16.8115 43.3999 16.546 40.7949C16.4874 40.2135 16.2874 39.2781 16.2874 38.7818V36.8328C16.2874 36.5794 16.1702 36.005 16.1581 35.5989C16.1047 33.8234 16.1185 31.9213 16.1581 30.1442C16.1961 28.4937 16.2754 26.8554 16.4167 25.2084C16.6322 22.692 16.9494 19.8857 17.4494 17.416C17.6924 16.2116 18.0182 14.8336 18.3527 13.65C19.5353 9.46747 22.1918 3.21447 26.0913 0.980885C26.8568 0.541804 27.6222 0.343958 28.4186 0.0107422H29.9667Z" fill="#205D99"/>
<path d="M52.6775 34.0421C52.4 33.7263 50.1296 31.3053 49.9675 31.1838C51.5518 29.4726 53.1999 27.7336 54.4101 25.7187C59.4301 17.3519 51.7932 16.649 45.4061 17.4352C44.3407 17.5653 43.296 17.8447 42.2254 17.9367C41.9582 16.7062 41.6721 15.3751 41.3221 14.1707C46.4646 12.9072 56.1271 12.0499 59.1508 17.5914C61.373 21.6628 58.8078 26.5604 56.3443 29.8769C55.2376 31.3677 53.9325 32.6867 52.6775 34.0439V34.0421Z" fill="#FE651C"/>
<path d="M9.96585 35.3403C6.33356 38.964 -0.974113 47.8966 8.62809 49.2208C10.3055 49.4516 12.0725 49.3908 13.7567 49.2208C15.079 49.0871 16.3909 48.7522 17.7097 48.5873C17.9545 49.7258 18.2924 51.2548 18.613 52.3533C14.9531 53.1343 11.0795 53.6463 7.36274 52.9625C-0.231105 51.5637 -1.70678 45.8053 1.81518 39.4083C3.19087 36.9109 5.19406 34.5506 7.25758 32.6121C8.01955 33.4607 9.13148 34.5281 9.96758 35.3403H9.96585Z" fill="#FE8857"/>
<path d="M4.93199 19.884C5.06646 23.8097 7.64371 27.0603 10.0934 29.8857C11.0381 30.9738 11.9294 31.7878 12.9327 32.744C13.955 33.7177 14.9048 34.8787 16.1581 35.6024C16.1702 36.0085 16.2874 36.583 16.2874 36.8363V38.7853C16.2874 39.2817 16.4874 40.2171 16.546 40.7985C14.2291 39.1619 12.0018 37.3206 9.9641 35.3438C9.128 34.5316 8.01608 33.4643 7.25411 32.6156C6.03702 31.2602 4.81822 29.608 3.84593 28.0582C1.66862 24.5942 -0.105284 20.0524 2.35129 16.2499C2.52024 17.4786 3.81145 19.3547 4.93199 19.8875V19.884Z" fill="#02FEE6"/>
<path d="M49.9676 31.1837C50.1296 31.3035 52.4 33.7262 52.6776 34.0421C52.7051 34.0733 52.7103 34.2521 52.8069 34.3614C56.1133 38.1743 59.5439 43.1187 58.6147 48.4589C58.5889 48.386 57.8752 47.3152 57.7648 47.1711C57.1528 46.3745 55.8668 45.597 54.8721 45.4721C54.0757 42.1347 51.9535 39.2746 49.7107 36.7703C48.8074 35.762 47.8472 34.8474 46.8714 33.9119C45.8819 32.9643 44.9527 31.9109 43.7753 31.1837C43.7339 29.535 43.6718 27.7544 43.5167 26.1178C45.7129 27.4698 47.6317 29.2938 49.5159 31.0605C49.6711 31.2063 49.9331 31.1577 49.9693 31.1837H49.9676Z" fill="#02DCC0"/>
<path d="M10.8692 12.7406C11.5139 13.6813 11.8156 15.5226 11.6432 16.6368C11.3277 18.6795 8.99529 20.297 6.99727 20.2744V10.9218C8.33503 10.908 10.09 11.6056 10.8692 12.7406Z" fill="#FE9F02"/>
<path d="M54.8721 45.4721C55.865 45.5971 57.1528 46.3746 57.7648 47.1712C57.8751 47.3152 58.5888 48.386 58.6147 48.4589C58.7664 48.8685 58.794 50.5103 58.7336 50.9806C58.4406 53.2142 56.2546 54.8264 54.0997 54.823V45.4704C54.3411 45.4652 54.6462 45.4426 54.8738 45.4704L54.8721 45.4721Z" fill="#FE9F02"/>
<path d="M54.0981 45.4722V54.8248C53.1327 54.8248 51.876 54.3961 51.1295 53.7852C50.1435 52.9765 49.4677 51.4301 49.4522 50.1476C49.4194 47.4906 51.514 45.5242 54.0981 45.4722Z" fill="#FED296"/>
<path d="M6.99726 10.9218V20.2744C6.54732 20.2692 5.30955 20.0644 4.93201 19.8839C3.81147 19.3528 2.52026 17.475 2.35131 16.2463C1.96515 13.4435 4.2321 10.9513 6.99726 10.92V10.9218Z" fill="#FED296"/>
<path d="M49.4521 50.1476C49.4677 51.4284 50.1434 52.9765 51.1295 53.7852C50.6089 53.9032 49.7866 54.0386 49.2642 54.0508C47.7127 54.082 45.8061 53.8529 44.2632 53.6186C43.3236 53.4763 42.3755 53.2247 41.4514 53.0077C41.8048 51.7842 42.2289 50.4843 42.4841 49.2417C44.751 49.863 47.1059 50.0782 49.4521 50.1511V50.1476Z" fill="#02DCC0"/>
<path d="M18.3527 13.6501C18.0183 14.8337 17.6925 16.2117 17.4494 17.4162L11.6433 16.6369C11.8157 15.5227 11.514 13.6814 10.8692 12.7407L18.3545 13.6501H18.3527Z" fill="#02FEE6"/>
<path d="M34.742 20.2727C36.1849 21.0745 37.5485 22.0776 39 22.8707C39.2638 24.6322 39.5051 26.1282 39.6448 27.9366C36.509 25.8853 33.3404 23.8651 29.9667 22.2216V17.9349C31.5579 18.6829 33.2042 19.4205 34.742 20.2727Z" fill="#02DCC0"/>
<path d="M34.6127 46.6402C35.9366 47.1868 37.2416 47.7717 38.6122 48.1986C38.3415 49.5089 37.9484 50.703 37.5795 51.9647C35.8091 51.3173 34.0403 50.6613 32.2923 49.948C31.7286 49.7172 30.3856 48.9293 29.965 48.8477V44.561C31.4976 45.3212 33.0301 45.9859 34.6109 46.6384L34.6127 46.6402Z" fill="#02DCC0"/>
<path d="M39.2586 44.0421L34.6127 46.6401C33.0318 45.9876 31.4993 45.3211 29.9667 44.5627C29.9202 44.5384 29.8822 44.4551 29.8374 44.4326C33.2801 42.9157 36.5952 41.1178 39.7741 39.1063C39.6741 40.7603 39.4741 42.4003 39.2586 44.0421Z" fill="#FE651C"/>
<path d="M37.3227 15.2085C37.7036 16.4928 38.0691 17.6261 38.3553 18.9746L34.742 20.2727C33.2042 19.4188 31.5596 18.683 29.9667 17.935V17.8048C32.3716 16.8208 34.8092 15.8871 37.3227 15.2068V15.2085Z" fill="#FE651C"/>
<path d="M49.7107 36.7685L43.5167 41.3138C43.6649 39.5609 43.7425 38.0094 43.7753 36.2479C44.8993 35.7168 45.9405 34.7467 46.8714 33.9102C47.8472 34.8456 48.8074 35.7585 49.7107 36.7685Z" fill="#FE651C"/>
<path d="M29.8374 44.4325C29.8805 44.455 29.9184 44.5384 29.9667 44.5626V48.8493C29.8891 48.8337 29.7909 48.8597 29.7081 48.8493C29.6254 48.6307 29.4202 48.5751 29.2392 48.4779C27.8687 47.7525 26.4189 47.1347 25.0639 46.3815C23.6692 45.6057 22.3642 44.6338 20.9351 43.9136C20.6679 42.1538 20.4352 40.6456 20.2904 38.8477C23.3331 40.9771 26.5275 42.7768 29.8391 44.4325H29.8374Z" fill="#02FEE6"/>
<path d="M29.9667 17.8048V22.2216H29.8374C28.3738 21.333 26.7723 20.6649 25.1915 20.014C23.9209 19.4917 22.6332 18.9936 21.3195 18.5857C21.5954 17.2043 21.8384 16.1734 22.2229 14.8197C24.8725 15.6337 27.3981 16.8346 29.965 17.8065L29.9667 17.8048Z" fill="#02FEE6"/>
<path d="M29.8374 22.2217C26.4413 23.5702 23.3555 25.5487 20.1594 27.2876C20.2576 25.6615 20.4645 24.0926 20.6748 22.482L25.1915 20.0142C26.7723 20.665 28.3721 21.3349 29.8374 22.2217Z" fill="#FC8958"/>
<path d="M16.1599 30.1442L12.9345 32.7423C11.9311 31.7878 11.0399 30.9738 10.0952 29.8839L16.4185 25.2085C16.2771 26.8555 16.1978 28.4938 16.1599 30.1442Z" fill="#FC8958"/>
<path d="M29.7081 48.8493C27.3084 49.6859 24.9794 50.7705 22.4815 51.3172C22.1022 50.0399 21.854 48.8407 21.5781 47.5512L25.0622 46.3815C26.4172 47.1347 27.867 47.7525 29.2375 48.4779C29.4202 48.5734 29.6236 48.6307 29.7064 48.8493H29.7081Z" fill="#FC8958"/>
<path d="M30.4822 26.3782C33.4783 26.3087 36.1573 28.9762 36.7452 31.8294C37.5657 35.8123 34.7368 39.9914 30.6115 40.1476C30.4701 40.1528 30.2856 40.1077 30.2236 40.2778C30.1391 40.2812 30.0495 40.2847 29.965 40.2778V26.3799C30.1357 26.3747 30.3098 26.3851 30.4804 26.3799L30.4822 26.3782Z" fill="#BD0634"/>
<path d="M30.4822 26.3782C30.3098 26.3817 30.1374 26.373 29.965 26.3782V40.2761C20.7283 39.5038 20.8352 27.0897 29.7754 26.248C29.984 26.2289 30.3512 26.1699 30.4822 26.3782Z" fill="#F9194C"/>
<path d="M30.6115 40.1459C30.5477 40.316 30.3667 40.2709 30.2236 40.2761C30.2856 40.106 30.4684 40.1511 30.6115 40.1459Z" fill="#F9194C"/>
</svg>
