<svg width="60" height="60" viewBox="0 0 60 60" fill="none" xmlns="http://www.w3.org/2000/svg">
<path d="M41.323 10.8115L45.1968 14.6854L10.3284 49.6712L8.80231 43.3322C8.84964 43.2584 8.83639 43.0539 8.96892 42.9762C19.6495 32.1613 30.5781 21.5091 41.3211 10.8115H41.323Z" fill="#FECD48"/>
<path d="M49.19 18.6786C38.4924 29.4216 27.8402 40.3502 17.0252 51.0307C16.9476 51.1652 16.7431 51.15 16.6693 51.1973L10.3303 49.6713L45.1987 14.6854C46.5279 16.0146 47.946 17.2623 49.19 18.6767V18.6786Z" fill="#FEB14F"/>
<path d="M54.2377 13.6289L46.3726 5.76379C48.6863 3.4709 50.8883 -0.192786 54.6543 0.00791167C57.4053 0.155595 59.7285 2.38978 59.9765 5.13329C60.3306 9.02608 56.5912 11.2565 54.2377 13.6308V13.6289Z" fill="#FE755C"/>
<path d="M46.3707 5.76379L54.2358 13.6289C52.5924 15.2875 50.8315 17.0256 49.1881 18.6766C47.9441 17.2623 46.526 16.0127 45.1969 14.6854L41.323 10.8115C42.974 9.16619 44.7121 7.40725 46.3707 5.76379Z" fill="#184561"/>
<path d="M10.3303 49.6712L16.6693 51.1973C13.7081 53.1304 9.94216 54.7038 6.80862 56.3624L3.6391 53.1929C5.29959 50.0574 6.8711 46.2934 8.80424 43.3322L10.3303 49.6712Z" fill="#FEEAB3"/>
<path d="M6.80859 56.3624C5.08751 57.2731 3.4043 58.3561 1.64535 59.2403C1.37081 59.3785 0.208272 60.0374 0 59.8822C1.01296 57.9415 2.00509 55.9856 3.0313 54.0525C3.18656 53.7609 3.52737 53.4011 3.63907 53.1929L6.80859 56.3624Z" fill="#184561"/>
</svg>
