<svg width="60" height="60" viewBox="0 0 60 60" fill="none" xmlns="http://www.w3.org/2000/svg">
<path d="M53.4301 37.3313C53.2908 38.9201 53.9091 40.858 52.613 42.079C45.5501 47.0787 38.589 52.2491 31.4338 57.1064L30.421 57.1173C20.8927 55.1121 10.9966 54.0038 1.50117 51.9407C0.842159 51.7983 0.383511 51.8092 0 51.158V50.5726C0.374119 50.0748 0.619879 49.8181 1.28828 49.8698L30.302 55.1278C31.0565 55.1935 31.2193 55.1622 31.2898 54.3858C31.4526 52.5637 31.4854 48.4328 31.2851 46.6467C31.2397 46.2397 30.9939 45.5196 30.6167 45.324L1.40568 40.0268C0.820244 40.0331 0.317766 39.8155 0 39.324V38.6212C0.272371 38.2486 0.546307 37.9731 1.05505 38.0357L31.2334 43.4315L31.5888 43.3188C33.0539 42.1823 34.7007 41.2462 36.0907 40.0284C41.8684 39.1252 47.6399 38.1155 53.4316 37.3329L53.4301 37.3313Z" fill="#FAAC10"/>
<path d="M26.0114 27.0202C26.697 27.3991 28.1544 28.6795 28.876 28.6654L59.0544 23.7408C60.0437 23.7894 60.3536 25.0667 59.5146 25.5488C59.3565 25.6396 58.7773 25.8134 58.5848 25.8494C58.1872 25.9276 57.5924 25.9088 57.14 25.9855C47.8794 27.5681 38.578 28.9128 29.319 30.5047C28.9496 30.7646 28.7555 31.2123 28.7054 31.649C28.5269 33.2175 28.5567 36.8491 28.7007 38.4504C28.7304 38.7838 28.7649 39.2456 29.2157 39.2018L58.7022 34.4024C59.8386 34.2005 60.4851 35.5029 59.513 36.2104L53.4285 37.3328C47.6352 38.1139 41.8653 39.1235 36.0876 40.0283C34.4706 40.2819 29.5616 41.3933 28.289 40.9722C22.8275 37.5175 17.3691 34.0534 11.9499 30.5376C10.7023 29.7283 8.25253 28.44 7.26949 27.5431C6.83275 27.1439 6.60734 26.4959 6.55412 25.9151C6.33654 23.5154 6.72631 20.787 6.55882 18.3529C10.1576 20.7088 13.8048 23.0537 17.4662 25.314C18.2817 25.8181 20.373 27.2926 21.1213 27.518C21.9118 27.7544 24.983 27.1815 26.0099 27.0234L26.0114 27.0202Z" fill="#E53532"/>
<path d="M46.4001 13.0762C37.966 14.1797 29.582 15.8781 21.1573 17.0553C15.6754 13.7712 10.3078 10.2992 4.92146 6.86641L28.8744 3L46.4017 13.0762H46.4001Z" fill="#03A8F3"/>
<path d="M46.4001 13.0762C46.9464 13.0903 47.2751 13.7571 47.1468 14.222C46.9527 14.9249 46.2764 14.9484 45.6973 15.0673C38.0223 16.6468 29.9342 17.3496 22.2123 18.8257C22.0041 18.7929 21.5596 19.3501 21.5596 19.4613V25.6131C28.6177 24.6081 35.6415 23.3887 42.6902 22.3133C43.667 22.1646 44.7346 21.8328 45.6973 21.7467C47.3659 21.5964 47.6618 23.3073 46.2874 23.6846C39.5126 24.6739 32.7753 25.9778 26.0114 27.0188C24.9846 27.1769 21.9133 27.7498 21.1228 27.5134C20.3746 27.2896 18.2833 25.8134 17.4677 25.3094C13.8064 23.0475 10.1607 20.7041 6.56038 18.3483C5.8278 17.8677 4.29845 17.0663 3.74275 16.5388C3.47508 16.2836 3.22306 15.7154 3.17297 15.3506C3.00547 14.1234 3.08844 11.6189 3.15731 10.3181C3.23558 8.85601 3.4109 7.50512 4.9199 6.86646C10.3063 10.2993 15.6738 13.7712 21.1557 17.0553C29.5804 15.8797 37.9644 14.1798 46.3985 13.0762H46.4001Z" fill="#026AB2"/>
<path d="M58.5864 25.8479C57.525 28.6702 57.9007 31.5708 58.7038 34.401L29.2173 39.2003C28.7664 39.2457 28.732 38.7824 28.7023 38.449C28.5582 36.8476 28.5285 33.216 28.707 31.6475C28.757 31.2108 28.9512 30.7631 29.3206 30.5032C38.5796 28.9113 47.8809 27.5667 57.1415 25.9841C57.5939 25.9074 58.1888 25.9246 58.5864 25.8479Z" fill="#FEF1E3"/>
<path d="M45.6972 15.0688C45.583 15.2676 45.6346 15.6073 45.5798 15.7717C45.5642 15.8202 45.4155 15.9282 45.3701 16.0832C44.7643 18.115 44.9944 19.7837 45.6972 21.7482C44.7346 21.8343 43.667 22.1661 42.6902 22.3149C35.643 23.3902 28.6177 24.6112 21.5596 25.6146V19.4628C21.5596 19.3516 22.0041 18.7944 22.2123 18.8273C29.9326 17.3511 38.0223 16.6483 45.6972 15.0688Z" fill="#FDF1E3"/>
<path d="M36.0891 40.0268C34.6991 41.2447 33.0524 42.1807 31.5872 43.3172L31.2319 43.4299L1.05348 38.0341L11.9499 30.5345C17.3707 34.0503 22.8291 37.5144 28.289 40.9692C29.5616 41.3918 34.4706 40.2788 36.0876 40.0253L36.0891 40.0268Z" fill="#F3D076"/>
<path d="M59.0544 23.7393L28.876 28.6639C28.1544 28.678 26.697 27.3976 26.0114 27.0187C32.7737 25.9778 39.511 24.6739 46.2874 23.6845C47.6618 23.3073 47.3659 21.5964 45.6973 21.7466C44.9928 19.7821 44.7627 18.1135 45.3701 16.0816C45.4155 15.9267 45.5642 15.8187 45.5798 15.7701L59.0544 23.7378V23.7393Z" fill="#FD6666"/>
<path d="M1.28829 49.8682C1.59196 48.3608 2.19775 46.6717 2.23063 45.1283C2.26819 43.408 1.62171 41.708 1.40412 40.0253L30.6151 45.3224C30.9924 45.5181 31.2381 46.2381 31.2835 46.6451C31.4855 48.4312 31.451 52.5637 31.2882 54.3842C31.2193 55.1606 31.055 55.1919 30.3005 55.1262L1.28672 49.8682H1.28829Z" fill="#FEF2E2"/>
</svg>
