<svg width="60" height="60" viewBox="0 0 60 60" fill="none" xmlns="http://www.w3.org/2000/svg">
<path d="M32.0216 26.5173L35.8417 22.774L36.0187 22.4517V4.69581C36.3528 0.88741 40.4602 -1.2757 43.7625 0.833959C44.7213 1.44698 46.0225 3.17245 46.0225 4.325V12.5147L58.338 0.261028C58.8675 -0.228386 59.838 0.00212287 60 0.725385L59.9699 59.4082C59.868 59.6671 59.6676 59.8692 59.407 59.9711L0.724201 60.0012C0.0376859 59.8475 -0.214538 58.9522 0.20305 58.4077L10.5125 48.0248H2.448C1.50927 48.0248 -0.03247 46.341 0.00928884 45.3372L0.00427799 2.82001C0.121203 1.37682 1.27542 0.207576 2.69689 0.0104748L29.2104 0.00546398C30.2577 -0.104779 32.0183 1.47871 32.0183 2.44919V26.5173H32.0216ZM2.72862 2.03828C2.25591 2.17358 1.98532 2.57781 2.0087 3.06889V44.9663C1.9803 45.5994 2.44299 46.0588 3.07105 46.0287H28.9648C29.5979 46.0571 30.0573 45.5944 30.0272 44.9663V3.06889C30.0556 2.43583 29.5929 1.97648 28.9648 2.00655L2.72862 2.03995V2.03828ZM42.0237 2.26211C41.8934 2.21701 41.7881 2.0767 41.5626 2.03995C39.1891 1.66412 37.659 3.79215 38.0232 6.01372C39.6868 5.98366 41.3605 6.05214 43.0259 6.01372C43.3583 6.00537 43.694 6.0204 44.0264 6.01372C44.1801 4.59225 43.8343 3.06555 42.488 2.35565C42.3176 2.26545 42.1456 2.30387 42.0253 2.26211H42.0237ZM55.9026 5.63789C52.607 8.90343 49.2847 12.1473 46.0258 15.4529V23.8932L50.5375 19.4651C51.1388 19.0826 51.7919 19.4784 52.0007 20.1065L51.9706 51.4072C51.8687 51.6661 51.6683 51.8682 51.4077 51.9701L20.2122 52.0186C17.7384 50.9763 21.2244 49.1857 21.8926 48.0248H13.4523L3.51202 58.0268H14.0152V55.0269H16.0163V58.0268H20.0168V55.0269H22.0179V58.0268H26.0183V55.0269H28.0194V58.0268H32.0199V55.0269H34.021V58.0268H38.0215V55.0269H40.0226V58.0268H44.0231V55.0269H46.0242V58.0268H50.0247V55.0269H52.0257V58.0268C53.357 58.0185 54.695 58.0369 56.0262 58.0268C56.691 58.0218 57.3608 58.0302 58.0273 58.0268V52.0253C57.3625 52.0152 56.691 52.0403 56.0262 52.0253C55.8308 52.0202 55.0441 52.0871 55.024 51.9534V50.0242C55.3581 50.0192 55.6938 50.0325 56.0262 50.0242C56.691 50.0091 57.3625 50.0359 58.0273 50.0242V46.0237C57.3625 46.0137 56.691 46.0387 56.0262 46.0237C55.8308 46.0187 55.0441 46.0855 55.024 45.9519V44.0226C55.3581 44.0176 55.6938 44.0309 56.0262 44.0226C56.691 44.0076 57.3625 44.0343 58.0273 44.0226V40.0221C57.3625 40.0121 56.691 40.0371 56.0262 40.0221C55.8308 40.0171 55.0441 40.0839 55.024 39.9503V38.021C55.3581 38.016 55.6938 38.0294 56.0262 38.021C56.691 38.006 57.3625 38.0327 58.0273 38.021V34.0205C57.3625 34.0105 56.691 34.0356 56.0262 34.0205C55.8308 34.0155 55.0441 34.0823 55.024 33.9487V32.0194C55.3581 32.0144 55.6938 32.0278 56.0262 32.0194C56.691 32.0044 57.3625 32.0311 58.0273 32.0194V28.0189C57.3625 28.0089 56.691 28.034 56.0262 28.0189C55.8308 28.0139 55.0441 28.0807 55.024 27.9471V26.0179C55.3581 26.0129 55.6938 26.0262 56.0262 26.0179C56.691 26.0028 57.3625 26.0296 58.0273 26.0179V22.0174C57.3625 22.0073 56.691 22.0324 56.0262 22.0174C55.8308 22.0124 55.0441 22.0792 55.024 21.9455V20.0163C55.3581 20.0113 55.6938 20.0246 56.0262 20.0163C56.691 20.0013 57.3625 20.028 58.0273 20.0163V16.0158C57.3625 16.0058 56.691 16.0308 56.0262 16.0158C55.8308 16.0108 55.0441 16.0776 55.024 15.944V14.0147C55.3581 14.0097 55.6938 14.0231 56.0262 14.0147C56.691 13.9997 57.3625 14.0264 58.0273 14.0147V3.51153C57.2289 4.12455 56.6092 4.93467 55.901 5.63789H55.9026ZM43.0242 8.01313C41.3605 7.97639 39.6868 8.03986 38.0232 8.01313V10.0142C39.6868 9.98582 41.3605 10.0526 43.0242 10.0142C43.3566 10.0059 43.6923 10.0209 44.0247 10.0142V8.08496C44.0064 7.95133 43.218 8.01815 43.0242 8.01313ZM40.0226 12.0136H38.0215V36.8952C38.3389 36.8401 40.0226 35.5806 40.0226 35.457V12.0136ZM42.8989 36.1452C43.2363 36.4192 43.6189 36.825 44.0247 36.8952V12.0136C44.0247 11.9635 43.1779 12.0136 43.0242 12.0136H42.0237V35.457C42.0237 35.5973 42.7469 36.0216 42.8989 36.1452ZM50.0263 50.0242V22.7674L46.0509 26.7311L45.9974 39.3055L41.7765 47.7141C41.3472 48.1734 40.6005 48.14 40.2163 47.6439L36.0221 39.3339V35.771L32.0466 39.7348C31.7477 41.5371 32.4809 44.7208 31.7376 46.3026C30.4999 48.9351 27.0306 47.7508 24.7322 48.0498L22.7678 50.0242H50.0247H50.0263ZM32.0216 36.8952L36.0221 32.9565V25.5168L32.0216 29.4555V36.8952ZM43.6255 39.1702C43.4719 38.9063 41.3555 37.6535 40.9797 37.281L38.4224 39.1702L38.3873 39.3322C38.3823 39.5895 39.1824 41.2114 39.3561 41.2598C39.9357 41.1997 40.4986 41.0076 41.0899 41.0126C41.5844 41.0176 42.2041 41.2749 42.5999 41.2648C42.8906 41.2582 43.7876 39.4458 43.6272 39.1702H43.6255ZM41.1467 44.6473L41.7731 43.2141C41.7263 42.977 40.1662 42.7765 40.3266 43.4029C40.3633 43.5465 40.7676 44.3316 40.8678 44.487C40.9463 44.6072 40.8544 44.7108 41.1467 44.6473Z" fill="white"/>
<path d="M56.0279 14.0148C55.6955 14.0231 55.3597 14.0081 55.0273 14.0148V15.944C55.0457 16.0776 55.8341 16.0108 56.0279 16.0158V20.0163C55.6955 20.0247 55.3597 20.0097 55.0273 20.0163V21.9456C55.0457 22.0792 55.8341 22.0124 56.0279 22.0174V26.0179C55.6955 26.0263 55.3597 26.0112 55.0273 26.0179V27.9472C55.0457 28.0808 55.8341 28.014 56.0279 28.019V32.0195C55.6955 32.0278 55.3597 32.0128 55.0273 32.0195V33.9487C55.0457 34.0824 55.8341 34.0156 56.0279 34.0206V38.0211C55.6955 38.0294 55.3597 38.0144 55.0273 38.0211V39.9503C55.0457 40.084 55.8341 40.0171 56.0279 40.0222V44.0226C55.6955 44.031 55.3597 44.016 55.0273 44.0226V45.9519C55.0457 46.0855 55.8341 46.0187 56.0279 46.0237V50.0242C55.6955 50.0326 55.3597 50.0175 55.0273 50.0242V51.9535C55.0457 52.0871 55.8341 52.0203 56.0279 52.0253V58.0269C54.6966 58.0369 53.3587 58.0185 52.0274 58.0269V55.0269H50.0263V58.0269H46.0258V55.0269H44.0247V58.0269H40.0242V55.0269H38.0232V58.0269H34.0227V55.0269H32.0216V58.0269H28.0211V55.0269H26.02V58.0269H22.0195V55.0269H20.0184V58.0269H16.0179V55.0269H14.0168V58.0269H3.51367L13.4539 48.0248H21.8942C21.2261 49.1857 17.7384 50.9763 20.2139 52.0186L51.4094 51.9702C51.6699 51.8683 51.8704 51.6662 51.9723 51.4073L52.0023 20.1065C51.7935 19.4802 51.1404 19.0826 50.5391 19.4651L46.0275 23.8932V15.4529C49.2863 12.1473 52.6103 8.90348 55.9043 5.63794L56.0296 14.0148H56.0279Z" fill="#FECC00"/>
<path d="M2.72865 2.03832L28.9649 2.00491C29.5946 1.97652 30.0556 2.43419 30.0272 3.06726V44.9647C30.0556 45.5944 29.5979 46.0555 28.9649 46.0271H3.07107C2.44135 46.0555 1.98033 45.5978 2.00873 44.9647V3.06893C1.98534 2.57784 2.25594 2.17362 2.72865 2.03832ZM3.72752 3.03886C3.25481 3.17416 2.98421 3.57839 3.0076 4.06947V43.9658C2.9792 44.5989 3.44189 45.0582 4.06994 45.0282H27.9627C28.5957 45.0566 29.0551 44.5939 29.025 43.9658V4.06947C29.0534 3.43641 28.5907 2.97706 27.9627 3.00713L3.72752 3.04053V3.03886Z" fill="#006CEF"/>
<path d="M40.0226 12.0137V35.4571C40.0226 35.5807 38.3405 36.8401 38.0215 36.8952V12.0137H40.0226Z" fill="#F6931D"/>
<path d="M32.0216 36.8952V29.4571L36.0221 25.5184V32.9565L32.0216 36.8952Z" fill="#FECC00"/>
<path d="M43.0242 12.0136C43.1762 12.0136 44.0247 11.9635 44.0247 12.0136V36.8952C43.6189 36.825 43.238 36.4191 42.8989 36.1452L43.0242 12.0136Z" fill="#BC0022"/>
<path d="M43.0242 12.0137L42.8989 36.1453C42.7469 36.0217 42.0237 35.5991 42.0237 35.4571V12.0137H43.0242Z" fill="#D70027"/>
<path d="M55.9026 5.63783C56.6108 4.93629 57.2305 4.12449 58.0289 3.51147V14.0147C57.3641 14.0263 56.6927 13.9996 56.0279 14.0147L55.9026 5.63783Z" fill="#EABE00"/>
<path d="M42.0236 2.2621C42.8237 3.45139 43.1929 4.55048 43.0241 6.01371C41.3605 6.05213 39.6868 5.98531 38.0214 6.01371C37.6573 3.79381 39.189 1.66411 41.5609 2.03994C41.7881 2.07669 41.8917 2.21533 42.0219 2.2621H42.0236Z" fill="#EFF0F0"/>
<path d="M43.6255 39.1702C43.7859 39.4458 42.8889 41.2581 42.5983 41.2648C42.2024 41.2748 41.5827 41.0176 41.0883 41.0126C40.497 41.0059 39.9341 41.198 39.3544 41.2598C39.1807 41.2113 38.3806 39.5894 38.3856 39.3322L38.4207 39.1702L40.978 37.281C41.3539 37.6535 43.4702 38.9063 43.6239 39.1702H43.6255Z" fill="#CDCFD0"/>
<path d="M56.028 52.0253C56.6928 52.0403 57.3642 52.0152 58.029 52.0253V58.0268C57.3642 58.0302 56.6944 58.0218 56.028 58.0268V52.0253Z" fill="#EABE00"/>
<path d="M43.0242 8.01312V10.0142C41.3606 10.0526 39.6869 9.9858 38.0232 10.0142V8.01312C39.6869 8.03984 41.3606 7.97637 43.0242 8.01312Z" fill="#2487FE"/>
<path d="M56.028 34.0205C56.6928 34.0355 57.3642 34.0105 58.029 34.0205V38.021C57.3642 38.0327 56.6928 38.006 56.028 38.021V34.0205Z" fill="#EABE00"/>
<path d="M56.028 16.0157C56.6928 16.0308 57.3642 16.0057 58.029 16.0157V20.0162C57.3642 20.0279 56.6928 20.0012 56.028 20.0162V16.0157Z" fill="#EABE00"/>
<path d="M56.028 28.0189C56.6928 28.034 57.3642 28.0089 58.029 28.0189V32.0194C57.3642 32.0311 56.6928 32.0044 56.028 32.0194V28.0189Z" fill="#EABE00"/>
<path d="M56.028 40.0221C56.6928 40.0371 57.3642 40.0121 58.029 40.0221V44.0226C57.3642 44.0343 56.6928 44.0076 56.028 44.0226V40.0221Z" fill="#EABE00"/>
<path d="M56.028 46.0237C56.6928 46.0387 57.3642 46.0137 58.029 46.0237V50.0242C57.3642 50.0359 56.6928 50.0091 56.028 50.0242V46.0237Z" fill="#EABE00"/>
<path d="M56.028 22.0173C56.6928 22.0324 57.3642 22.0073 58.029 22.0173V26.0178C57.3642 26.0295 56.6928 26.0028 56.028 26.0178V22.0173Z" fill="#EABE00"/>
<path d="M42.0237 2.26208C42.1456 2.30384 42.316 2.26543 42.4864 2.35562C43.8327 3.06552 44.1784 4.59223 44.0248 6.0137C43.6924 6.01871 43.3566 6.00535 43.0242 6.0137C43.1929 4.55214 42.8238 3.45305 42.0237 2.26208Z" fill="#CDCFD0"/>
<path d="M43.0242 8.01307C43.2196 8.01808 44.0063 7.95127 44.0264 8.0849V10.0142C43.6923 10.0192 43.3566 10.0058 43.0242 10.0142V8.01307Z" fill="#006CEF"/>
<path d="M41.1468 44.6473C40.8545 44.7107 40.9463 44.6072 40.8678 44.4869C40.7676 44.3316 40.3634 43.5465 40.3266 43.4028C40.1663 42.7765 41.7264 42.9769 41.7731 43.2141L41.1468 44.6473Z" fill="#BC0022"/>
<path d="M3.72755 3.03881L27.9627 3.0054C28.5924 2.97701 29.0534 3.43468 29.025 4.06775V43.9641C29.0534 44.5938 28.5958 45.0549 27.9627 45.0265H4.06997C3.44025 45.0549 2.97923 44.5972 3.00763 43.9641V4.06942C2.98424 3.57833 3.25484 3.17411 3.72755 3.03881ZM27.0206 5.01317H5.01372V14.0147H27.0189V5.01317H27.0206ZM15.0175 16.0158H5.01539V24.0184H15.0175V16.0158ZM27.0206 16.0158H17.0185V24.0184H27.0206V16.0158ZM15.0175 26.0179H5.01539V34.0205H15.0175V26.0179ZM27.0206 26.0179H17.0185V34.0205H27.0206V26.0179ZM27.0206 36.0199H5.01372V43.022H27.0189V36.0199H27.0206Z" fill="white"/>
<path d="M27.0189 5.01318H5.01367V14.0147H27.0189V5.01318Z" fill="#7ED53E"/>
<path d="M27.0206 36.0199V43.022H5.01367V36.0199H27.0189H27.0206ZM19.0179 37.0204H13.0163V39.0215H19.0179V37.0204ZM19.0179 40.0221H13.0163V42.0231H19.0179V40.0221Z" fill="#D70027"/>
<path d="M27.0205 16.0157V24.0184H17.0184V16.0157H27.0205ZM25.0194 19.0157H19.0178V21.0168H25.0194V19.0157Z" fill="#9AC8FE"/>
<path d="M27.0205 26.0178V34.0205H17.0184V26.0178H27.0205ZM21.6436 29.0194H19.0178V31.0205H21.6436C21.5384 31.2677 21.2595 31.2176 21.1125 31.5517C20.2723 33.4693 23.765 33.4693 22.9248 31.5517C22.7778 31.2176 22.4989 31.2677 22.3936 31.0205H25.0194V29.0194H22.3936C22.4989 28.7722 22.7778 28.8223 22.9248 28.4883C23.765 26.5707 20.2723 26.5707 21.1125 28.4883C21.2595 28.8223 21.5384 28.7722 21.6436 29.0194Z" fill="#57A3FE"/>
<path d="M15.0175 16.0157V24.0184H5.01538V16.0157H15.0175ZM11.0153 17.0163H9.01421V19.0174H7.01312V21.0185H9.01421V23.0195H11.0153V21.0185H13.0164V19.0174H11.0153V17.0163Z" fill="#57A3FE"/>
<path d="M15.0175 26.0178V34.0205H5.01538V26.0178H15.0175ZM8.59495 27.2773L7.2737 28.5985L8.50642 30.0651L7.2737 31.4398L8.59495 32.761L9.96965 31.5283C10.5042 31.6586 11.0988 32.9598 11.6383 32.7109C11.7252 32.6708 12.7324 31.6335 12.7525 31.5567C12.856 31.1592 11.7352 30.4443 11.5247 30.0651C11.655 29.5306 12.9562 28.9359 12.7074 28.3964C12.6439 28.2578 11.5982 27.2639 11.4529 27.2639L9.96965 28.51L8.59495 27.2773Z" fill="#9AC8FE"/>
<path d="M19.0179 37.0205H13.0164V39.0216H19.0179V37.0205Z" fill="white"/>
<path d="M19.0179 40.0221H13.0164V42.0232H19.0179V40.0221Z" fill="white"/>
<path d="M25.0195 19.0157H19.0179V21.0168H25.0195V19.0157Z" fill="white"/>
<path d="M21.6437 29.0195C21.5385 28.7723 21.2596 28.8224 21.1126 28.4883C20.2724 26.5708 23.7651 26.5708 22.9249 28.4883C22.7779 28.8224 22.499 28.7723 22.3937 29.0195H25.0195V31.0206H22.3937C22.499 31.2678 22.7779 31.2177 22.9249 31.5518C23.7651 33.4693 20.2724 33.4693 21.1126 31.5518C21.2596 31.2177 21.5385 31.2678 21.6437 31.0206H19.0179V29.0195H21.6437Z" fill="white"/>
<path d="M11.0153 17.0164V19.0158H13.0163V21.0169H11.0153V23.0179H9.01585V21.0169H7.01477V19.0158H9.01585V17.0164H11.0153Z" fill="white"/>
<path d="M8.59493 27.2773L9.96963 28.51L11.4529 27.2639C11.5982 27.2639 12.6439 28.2578 12.7073 28.3964C12.9562 28.9343 11.655 29.5306 11.5247 30.0651C11.7352 30.4459 12.8577 31.1592 12.7524 31.5567C12.7324 31.6336 11.7252 32.6708 11.6383 32.7109C11.1005 32.9598 10.5041 31.6586 9.96963 31.5283L8.59493 32.761L7.27368 31.4398L8.5064 30.0651L7.27368 28.5985L8.59493 27.2773Z" fill="white"/>
</svg>
