<svg width="60" height="61" viewBox="0 0 60 61" fill="none" xmlns="http://www.w3.org/2000/svg">
<path d="M22.5879 23.352C22.7375 25.9692 22.3875 28.8027 22.5832 31.3944C22.6882 32.7977 23.1766 33.7157 23.848 34.893C27.232 40.8274 31.324 46.5231 34.7558 52.4479C36.4104 55.7015 34.1687 59.5978 30.624 60.0289L4.77847 60.0353C0.618057 59.4657 -1.18134 55.5805 0.816929 51.8958C4.03708 45.9583 8.65252 40.226 11.7708 34.2677C13.4461 31.0651 12.4168 26.8649 12.7047 23.3504C10.7781 23.5 10.681 21.3967 10.794 19.9521C10.8799 18.8591 11.2045 18.0254 12.4056 17.8727L23.1877 17.9284C23.6523 18.0493 24.2521 18.6777 24.3476 19.1502C24.4621 19.7134 24.443 22.049 24.1869 22.5072C23.9005 23.0195 23.1893 23.4427 22.5895 23.3504L22.5879 23.352ZM22.7073 19.54H12.5838V21.6831H22.7073V19.54ZM14.3705 23.4698C14.2385 26.0217 14.5439 28.7423 14.3753 31.2751C14.1144 35.1905 11.0406 37.9429 9.48778 41.3333C15.7515 41.1503 20.814 44.9305 27.1127 44.7873C27.3147 44.7825 28.0354 44.9098 27.9448 44.6107L22.0899 35.2208C21.6747 34.4444 20.919 32.8375 20.919 31.9847V23.3504C20.6024 23.3457 20.2826 23.3584 19.966 23.3504C18.1443 23.3075 16.3115 23.3823 14.4882 23.3504L14.3689 23.4698H14.3705ZM8.37568 43.0197L2.41268 52.5386C0.675332 54.9139 2.0579 58.1134 5.01871 58.3679C13.7262 58.2439 22.4893 58.5986 31.1649 58.1866C33.0105 57.6631 34.14 55.3546 33.3986 53.5664L29.0171 46.3879C27.3131 46.5581 25.6792 46.5549 23.9784 46.3147C18.733 45.5749 13.8693 42.4518 8.37728 43.0182L8.37568 43.0197Z" fill="#040404"/>
<path d="M29.5247 2.47993L57.16 18.3723C63.1835 22.3418 58.7319 31.0015 52.1246 28.6484L24.0087 12.457C23.5505 12.2947 22.9841 12.6081 22.4623 12.5763C20.6772 12.4697 19.5381 10.6433 20.1983 8.99341C21.6 6.68808 22.8012 4.23638 24.2331 1.95332C24.6626 1.26761 24.9124 0.682124 25.6777 0.301879C27.4659 -0.584298 29.2765 0.581893 29.5231 2.47993H29.5247ZM26.6036 1.70035C26.2377 1.78308 26.1327 2.07741 25.945 2.35584C24.459 4.55616 23.3342 7.22265 21.8466 9.45003C21.3454 10.5812 22.5705 11.4085 23.3501 10.4794L27.738 2.95405C28.0085 2.18083 27.4278 1.5158 26.6036 1.70035ZM28.5414 4.89186C27.3689 6.809 26.3427 8.82477 25.1542 10.7339C25.0906 10.866 25.0317 11.0506 25.1097 11.1826C25.202 11.3417 28.0387 12.8134 28.3744 12.8595C32.915 12.8563 37.4605 12.9009 41.9996 12.8706C42.7123 12.8659 43.4298 12.8754 44.1426 12.8706L44.0217 12.694L29.3401 4.26979C28.7944 3.96273 28.753 4.54821 28.5414 4.89186ZM47.1798 14.538H31.0425L35.6356 17.1599L35.7979 17.1504C36.0891 16.5172 36.6745 15.0137 37.5909 15.4337C38.9512 16.0574 36.9673 17.8377 37.2441 18.2211C37.2998 18.2991 38.8574 19.0898 38.9512 19.0739C39.4413 18.3548 39.7388 16.8306 40.8986 17.3668C42.0091 17.8806 40.6027 19.2298 40.4674 19.7469C40.3688 20.1287 41.8961 20.9242 42.1571 20.8399C42.6105 20.6935 42.838 18.6618 43.9899 19.1534C45.4265 19.766 43.4394 21.4922 43.6812 21.9042C43.729 21.987 45.2627 22.784 45.3756 22.765C45.907 22.1142 46.1997 20.5344 47.3278 21.0578C48.4271 21.5685 47.0573 22.9463 46.9268 23.4698C46.8155 23.9168 48.2617 24.5325 48.6642 24.6614C49.0015 23.8993 49.4629 22.4452 50.5686 22.9384C51.7507 23.465 49.9036 25.2453 50.147 25.6176C50.2329 25.7496 51.625 26.4894 51.8032 26.4385C52.2391 26.3113 52.5064 24.165 53.7585 24.7505C55.0106 25.336 53.1985 27.1911 53.3098 27.2818C57.7487 28.0995 60.2784 22.6377 56.4425 19.9219C53.6455 17.9411 50.034 16.5076 47.1766 14.5396L47.1798 14.538Z" fill="#040404"/>
<path d="M51.9034 37.6613L51.8302 43.007L51.4468 43.4572L47.1384 45.8771L47.1146 50.4226L50.8915 52.6277C53.0441 51.0764 55.8618 52.782 55.1029 55.4501C54.4935 57.5947 51.2638 57.7999 50.3124 55.703C50.0213 55.0619 50.1899 54.6052 49.9767 54.0134L46.3238 51.9578L41.5827 54.5384C39.6974 53.7207 37.9919 52.5306 36.1988 51.5362C36.0524 51.3119 35.9506 51.0733 35.9204 50.8012C35.8074 49.7862 35.782 46.2955 35.9522 45.3473C35.9824 45.1819 36.124 44.9003 36.2497 44.7793L40.6615 42.2592L40.6886 37.7233L36.9148 35.5119C35.6467 36.5651 33.5721 36.2135 32.8593 34.6893C31.5229 31.8367 35.4017 29.5441 37.233 31.9831C37.82 32.7642 37.6196 33.2813 37.8264 34.1277L41.4904 36.1928C43.1244 35.496 44.5833 34.3314 46.2427 33.6234C47.9625 34.2184 49.3976 35.5007 51.0872 36.1833C51.6154 35.7855 54.5938 34.4045 54.8006 34.0688C54.9422 33.8382 54.8165 33.364 54.8674 33.0649C55.3606 30.1757 59.6515 30.3635 59.9649 33.1874C60.2417 35.6757 57.5753 36.9485 55.6533 35.515L51.9002 37.6597L51.9034 37.6613ZM34.9404 32.664C33.8012 32.9186 34.1735 34.8357 35.5767 34.3727C36.4231 34.0927 36.1479 32.3951 34.9404 32.664ZM57.2109 32.6608C56.0193 32.9074 56.4616 34.7896 57.7534 34.4014C58.6476 34.1325 58.4233 32.4095 57.2109 32.6608ZM50.1979 37.6613L46.3477 35.5039C46.1377 35.4976 43.7353 36.9103 43.3487 37.1458C43.0289 37.3399 42.4275 37.5881 42.3591 37.9429C42.2907 38.2977 42.3225 41.9792 42.4148 42.1685C43.6812 42.9863 44.9795 43.785 46.3477 44.4261L50.1979 42.2688V37.6613ZM45.4345 45.8787L41.5859 43.7213C41.4109 43.715 38.9528 45.1389 38.5869 45.3632C38.2671 45.5573 37.6657 45.8055 37.5973 46.1603C37.5289 46.5151 37.5607 50.1966 37.653 50.386L41.5843 52.6404L45.3772 50.5164L45.4345 45.8787ZM52.325 53.7445C51.3847 54.0277 51.7045 55.8494 52.9614 55.4548C54.0083 55.1255 53.5898 53.3659 52.325 53.7445Z" fill="#040404"/>
<path d="M11.4829 2.0647C15.9678 1.50785 16.5104 8.29339 12.1654 8.58295C7.82042 8.87251 7.41313 2.56904 11.4829 2.0647ZM11.7231 3.72409C9.24753 4.06297 10.5299 7.96406 12.7445 6.65945C14.2432 5.77805 13.3427 3.50135 11.7231 3.72409Z" fill="#040404"/>
<path d="M15.053 10.5175C19.53 9.76023 19.4011 16.226 15.5191 15.9603C12.377 15.7455 12.1399 11.0107 15.053 10.5175ZM15.2885 12.1817C14.4023 12.4442 14.4516 13.9588 15.4682 14.2245C17.1467 14.6652 17.2581 11.5978 15.2885 12.1817Z" fill="#040404"/>
<path d="M8.37563 43.0198C13.8677 42.4534 18.7313 45.5765 23.9768 46.3163C25.6791 46.5565 27.3115 46.5613 29.0154 46.3895L33.397 53.568C34.1384 55.3563 33.0088 57.6648 31.1633 58.1882C22.4876 58.5987 13.7245 58.2439 5.01707 58.3696C2.05784 58.115 0.675274 54.9156 2.41104 52.5402L8.37404 43.0214L8.37563 43.0198ZM11.7215 45.8915C8.16721 46.3736 8.80837 51.81 12.5138 51.3279C15.9964 50.8745 15.2789 45.4079 11.7215 45.8915ZM21.3724 50.8872C17.7083 51.2531 19.1434 57.0363 22.6165 55.4756C25.03 54.3905 23.9784 50.6279 21.3724 50.8872Z" fill="#FDE986"/>
<path d="M19.9676 23.3521C20.2906 26.8427 19.2087 31.3149 20.779 34.5096L27.1127 44.789C20.814 44.9321 15.7515 41.1504 9.48779 41.3349C11.0406 37.9446 14.1128 35.1922 14.3753 31.2768C14.5439 28.7439 14.2385 26.0233 14.3705 23.4714L14.4898 23.3521C16.3131 23.3839 18.1459 23.3091 19.9676 23.3521Z" fill="#E2EFFD"/>
<path d="M22.7073 19.54H12.5839V21.6831H22.7073V19.54Z" fill="#B5D9FD"/>
<path d="M19.9675 23.3521C20.2841 23.36 20.6039 23.3473 20.9205 23.3521V31.9863C20.9205 32.8391 21.6763 34.4444 22.0915 35.2224L27.9463 44.6124C28.0386 44.9115 27.3163 44.7842 27.1142 44.7889L20.7805 34.5096C19.2102 31.3149 20.2921 26.8427 19.9691 23.3521H19.9675Z" fill="#B5D9FD"/>
<path d="M47.1797 14.538C50.0387 16.506 53.6486 17.9395 56.4456 19.9203C60.2814 22.6361 57.7518 28.0979 53.3129 27.2801C53.2015 27.1895 54.9612 25.3105 53.7616 24.7489C52.562 24.1873 52.2422 26.3096 51.8063 26.4369C51.6281 26.4894 50.236 25.748 50.15 25.616C49.9066 25.2437 51.7538 23.4634 50.5717 22.9368C49.4659 22.4451 49.0029 23.8993 48.6672 24.6598C48.2647 24.5309 46.8185 23.9152 46.9299 23.4682C47.0604 22.9447 48.4302 21.5669 47.3308 21.0562C46.2028 20.5328 45.9101 22.1126 45.3787 22.7633C45.2657 22.7824 43.732 21.9838 43.6843 21.9026C43.4425 21.4906 45.4296 19.7643 43.9929 19.1518C42.8395 18.6602 42.6136 20.6903 42.1601 20.8383C41.8992 20.9226 40.3703 20.1271 40.4705 19.7453C40.6057 19.2282 42.0106 17.879 40.9017 17.3651C39.7418 16.829 39.4427 18.3531 38.9543 19.0723C38.8604 19.0882 37.3029 18.2975 37.2472 18.2195C36.9688 17.8345 38.9543 16.0542 37.594 15.4321C36.6776 15.0121 36.0921 16.5156 35.801 17.1488L35.6387 17.1583L31.0455 14.5364H47.1829L47.1797 14.538Z" fill="#77FCED"/>
<path d="M28.5414 4.89185L42.1745 12.632L41.9995 12.8706C37.4604 12.9008 32.915 12.8563 28.3743 12.8595C28.0386 12.8133 25.2035 11.3417 25.1096 11.1826C25.0317 11.0489 25.0906 10.8644 25.1542 10.7339C26.3427 8.82316 27.3688 6.80898 28.5414 4.89185Z" fill="#E2EFFD"/>
<path d="M26.6036 1.7004C27.4277 1.51585 28.0084 2.18088 27.738 2.9541L23.35 10.4794C22.5705 11.4086 21.3438 10.5829 21.8466 9.45008C23.3341 7.2227 24.4589 4.55622 25.9449 2.35589C26.1327 2.07747 26.2361 1.78314 26.6036 1.7004Z" fill="#B5D9FD"/>
<path d="M28.5414 4.89192C28.753 4.54668 28.7943 3.96279 29.3401 4.26985L44.0216 12.6941L44.1426 12.8707C43.4298 12.8771 42.7123 12.8675 41.9995 12.8707L42.1745 12.6321L28.5414 4.89192Z" fill="#B5D9FD"/>
<path d="M45.4344 45.8787L45.3771 50.5164L41.5842 52.6404L37.6529 50.386C37.5606 50.1966 37.5288 46.5151 37.5972 46.1603C37.6656 45.8055 38.267 45.5573 38.5868 45.3632C38.9543 45.1389 41.4108 43.715 41.5858 43.7213L45.4344 45.8787Z" fill="#FDE986"/>
<path d="M50.1978 37.6613V42.2688L46.3476 44.4262C44.9794 43.785 43.6828 42.9879 42.4147 42.1685C42.3225 41.9792 42.2906 38.2977 42.3591 37.9429C42.4275 37.5881 43.0289 37.3399 43.3486 37.1458C43.7353 36.9104 46.1392 35.4976 46.3476 35.5039L50.1978 37.6613Z" fill="#77FCED"/>
<path d="M34.9403 32.664C36.1479 32.3951 36.4231 34.0943 35.5767 34.3727C34.1735 34.8357 33.8012 32.9186 34.9403 32.664Z" fill="#77FCED"/>
<path d="M57.2109 32.6608C58.4233 32.4095 58.6476 34.1325 57.7535 34.4014C56.46 34.7896 56.0193 32.9074 57.2109 32.6608Z" fill="#77FCED"/>
<path d="M52.325 53.7446C53.5883 53.3644 54.0083 55.1256 52.9614 55.4549C51.7045 55.8511 51.3863 54.0278 52.325 53.7446Z" fill="#FDE986"/>
<path d="M11.7231 3.72411C13.3444 3.50138 14.2433 5.77807 12.7446 6.65947C10.5299 7.96249 9.24757 4.06299 11.7231 3.72411Z" fill="#E2EFFD"/>
<path d="M15.2885 12.1818C17.2581 11.5995 17.1468 14.6653 15.4683 14.2246C14.4516 13.9573 14.4023 12.4427 15.2885 12.1818Z" fill="#E2EFFD"/>
<path d="M11.7216 45.8915C15.2806 45.4078 15.9965 50.8744 12.5139 51.3279C8.80688 51.8099 8.1673 46.3751 11.7216 45.8915ZM11.3159 49.39C12.3023 50.3765 13.8885 48.8221 12.8146 47.8309C11.7804 46.8747 10.3692 48.4434 11.3159 49.39Z" fill="#040404"/>
<path d="M21.3725 50.8872C23.9785 50.6278 25.0301 54.3905 22.6166 55.4756C19.1435 57.0363 17.7084 51.2531 21.3725 50.8872ZM21.4838 52.5481C20.6136 52.6818 20.7345 54.1455 21.6779 54.0469C22.6214 53.9482 22.397 52.4081 21.4838 52.5481Z" fill="#040404"/>
<path d="M11.3158 49.3901C10.3692 48.4434 11.7804 46.8763 12.8145 47.8309C13.8869 48.8221 12.3006 50.3765 11.3158 49.3901Z" fill="#FDE986"/>
<path d="M21.4838 52.5482C22.397 52.4082 22.6468 53.9451 21.6779 54.0469C20.709 54.1487 20.6119 52.6818 21.4838 52.5482Z" fill="#FDE986"/>
</svg>
