<svg width="60" height="60" viewBox="0 0 60 60" fill="none" xmlns="http://www.w3.org/2000/svg">
<path d="M56.8331 0L60 3.16689V3.7541L52.7845 11.0278C52.5482 11.5404 53.8971 12.2494 54.0753 12.6694C54.1643 12.8785 54.1771 13.2075 54.1334 13.4275C54.0571 13.8147 52.4155 15.2036 52.0246 15.6L49.3267 13.2548V13.0203C49.5558 13.0221 49.6521 12.8621 49.7976 12.7294C50.0721 12.4767 51.9246 10.666 51.8973 10.5151C50.8647 9.49341 49.8776 8.42081 48.8577 7.39184C48.8377 7.37185 48.8777 7.29367 48.8577 7.27368L56.2459 0.00363532H56.8331V0Z" fill="#54A5FE"/>
<path d="M49.3285 13.0166V13.2511L24.586 38.2281C24.5369 38.179 24.4006 38.1609 24.3515 38.11C22.6735 36.4302 21.0737 34.6613 19.3085 33.0669C19.3321 33.0433 19.3503 32.8397 19.4757 32.7124C23.1062 29.0529 26.7676 25.4169 30.449 21.8101C30.4817 21.8428 31.1325 22.2228 31.2252 22.2646C32.9377 23.0499 33.8976 22.17 35.0829 21.1084C38.8443 17.7415 42.6657 13.5765 46.278 9.96423L49.3267 13.013L49.3285 13.0166Z" fill="#1F8AFE"/>
<path d="M24.3515 38.1118L11.6876 51.0102H11.4531L6.5282 45.9672C9.99324 41.6295 15.2944 37.1137 19.3103 33.0687C21.0737 34.6631 22.6735 36.432 24.3533 38.1118H24.3515Z" fill="#BEDBFE"/>
<path d="M52.0246 15.5963C43.7874 23.9662 35.2957 32.3488 26.9294 40.6915C26.1549 39.8716 25.3805 39.0262 24.5842 38.2281L49.3267 13.2511L52.0246 15.5963Z" fill="#2173CF"/>
<path d="M48.8595 7.27181C48.8795 7.29181 48.8395 7.36998 48.8595 7.38998C47.916 8.16262 47.1379 9.11341 46.2798 9.96967C42.6657 13.5802 38.8461 17.7451 35.0848 21.1138C33.8995 22.1755 32.9378 23.0554 31.2271 22.27C31.1343 22.2264 30.4817 21.8464 30.4508 21.8155C30.4199 21.7846 30.0381 21.132 29.9963 21.0393C29.5909 20.1575 29.6309 19.1231 30.1654 18.305L44.4582 3.98493C44.7854 3.76132 45.1436 3.85768 45.4563 4.05402C46.2053 4.52669 47.7614 6.36829 48.5086 7.10638C48.6341 7.23 48.8431 7.25363 48.8631 7.27363L48.8595 7.27181Z" fill="#BEDBFE"/>
<path d="M24.586 38.23C25.3822 39.0281 26.1567 39.8734 26.9311 40.6933C22.8971 44.7165 18.3631 50.0031 14.0327 53.4754L11.6875 51.0121L24.3514 38.1136C24.4005 38.1627 24.5369 38.1809 24.586 38.2318V38.23Z" fill="#89C0FE"/>
<path d="M6.52634 45.969L11.4512 51.012L1.24879 58.7511C0.976091 58.4784 -0.0837816 57.7003 0.00529862 57.344L6.29 46.0526C6.36454 45.949 6.51906 45.9799 6.52634 45.9708V45.969Z" fill="#1F8AFE"/>
<path d="M11.6857 51.0101L14.0309 53.4735C14.0091 53.4917 13.9982 53.7716 13.8455 53.8098L2.65588 59.9927C2.29956 60.0818 1.52147 59.0219 1.24878 58.7492L11.4512 51.0101H11.6857Z" fill="#2173CF"/>
<path d="M49.3285 13.0166L46.2798 9.96788C47.1379 9.1098 47.916 8.16082 48.8595 7.38818C49.8794 8.41897 50.8683 9.48975 51.8991 10.5114C51.9246 10.6623 50.0739 12.473 49.7994 12.7257C49.6539 12.8584 49.5576 13.0184 49.3285 13.0166Z" fill="#89C0FE"/>
</svg>
