<svg width="180" height="180" viewBox="0 0 180 180" fill="none" xmlns="http://www.w3.org/2000/svg">
<path d="M65.4561 97.31C65.693 97.4566 65.9268 97.4825 66.1659 97.3214L66.5397 96.686C66.0157 91.5877 65.3783 86.4788 65.0048 81.3696C64.8397 79.1159 64.6292 76.6488 64.5749 74.4091C64.5437 73.1222 64.184 71.7991 65.4685 71.2901C69.7117 69.6127 74.7514 68.8897 79.0821 67.4162C79.6367 67.2281 79.8306 66.9155 79.3884 66.3846C79.0496 65.9805 70.5088 63.9003 69.2393 63.5624C59.1487 60.8771 48.9981 58.1856 38.8445 55.7553C36.9905 55.3121 33.4747 54.1818 31.7659 54.1354C31.4043 54.1261 31.0496 54.0411 30.7283 54.2926C30.4557 54.5583 30.763 55.9237 30.8582 56.3592C31.8817 61.1134 34.0188 66.8443 35.5234 71.5769C37.0275 76.3065 38.5339 81.0916 40.2326 85.7538C40.5453 86.6122 41.9015 90.6256 42.322 90.9953C42.4732 91.1303 42.5715 91.1431 42.7672 91.1439C43.7378 91.1554 45.5311 88.1923 46.2218 87.3775C47.5096 85.8651 48.8788 84.4176 50.2056 82.9363L65.4531 97.3104L65.4561 97.31ZM36.5287 56.8243L36.5638 56.409L76.243 66.8676L64.1425 70.4858C55.4653 66.1568 46.7975 61.8078 38.1373 57.4482C37.8043 57.2823 36.5905 56.883 36.5256 56.8248L36.5287 56.8243ZM57.0524 76.8882C52.8176 78.5798 49.3763 81.81 46.4128 85.1775C45.4857 86.2306 44.189 88.3686 43.2929 89.1809C43.1073 89.3462 43.1914 89.5289 42.884 89.2472L32.4181 57.0497C34.95 59.0866 37.2218 61.5301 39.6718 63.7008C43.9139 67.4608 48.6571 71.2892 53.3567 74.4536C54.4519 75.1911 55.798 75.7438 56.8599 76.4864C57.0545 76.6209 57.066 76.5943 57.0554 76.8878L57.0524 76.8882ZM34.7353 57.3157L63.3773 71.5418C63.2929 77.1038 64.0013 82.6519 64.3958 88.1988L60.9796 80.4795C60.179 79.358 59.602 77.1711 58.7045 76.2262C58.0745 75.5659 55.6614 74.4576 54.7107 73.8314C47.4856 69.0731 40.9396 63.3248 34.7383 57.3152L34.7353 57.3157ZM64.9971 94.7415C64.7691 94.9941 63.8403 94.0074 63.6167 93.806C60.0371 90.5957 54.9561 86.1488 51.839 82.656C51.5383 82.3174 51.3054 82.2168 51.586 81.7822C52.0635 81.0345 57.6841 77.48 58.2107 77.7526C61.0386 83.1718 63.4051 88.8207 64.9971 94.7415Z" fill="#00AECD"/>
<path d="M96.7323 113.672C97.1318 112.017 94.8773 112.72 93.8172 112.43C93.1785 112.256 92.469 111.241 92.0335 110.694C91.4593 109.972 91.3305 108.576 90.2182 109.717C89.9375 110.372 91.3492 111.39 91.4723 111.945C91.6947 112.942 90.3066 112.74 92.6565 113.519C93.9557 113.949 93.2509 113.688 94.3234 113.697C95.1069 113.703 95.9255 114.017 96.7319 113.669L96.7323 113.672Z" fill="#00AECD"/>
<path d="M76.8504 103.93L76.1275 104.436C76.0116 104.771 76.2795 104.978 76.4778 105.195C76.7213 105.465 79.466 107.513 79.7311 107.621C80.4727 107.919 81.0752 107.618 80.6743 106.832C80.5096 106.51 77.109 103.955 76.8474 103.93L76.8504 103.93Z" fill="#00AECD"/>
<path d="M100.886 119.051C101.175 118.811 100.782 118.201 100.537 117.981C100.321 117.788 97.3693 115.766 97.1805 115.689C96.3173 115.348 95.7521 115.87 96.2851 116.666C96.4149 116.864 97.7148 117.74 98.0372 117.957C98.6123 118.344 100.303 119.539 100.889 119.051L100.886 119.051Z" fill="#00AECD"/>
<path d="M107.46 95.265C105.764 95.077 108.033 97.6824 108.257 98.1074C108.525 98.6216 108.804 99.8827 109.084 100.166C109.525 100.61 110.149 100.026 110.116 99.4875C110.068 98.6595 108.361 95.365 107.457 95.2655L107.46 95.265Z" fill="#00AECD"/>
<path d="M95.8 95.7443C96.173 95.3451 95.786 94.4081 94.7187 94.8556C94.0012 95.1559 90.8839 97.448 91.2598 98.2531C91.7096 99.2145 93.3401 97.3479 93.7645 97.0401C94.1889 96.7323 95.6379 95.9215 95.8004 95.7473L95.8 95.7443Z" fill="#00AECD"/>
<path d="M108.732 103.595C108.544 103.863 108.368 104.915 108.136 105.404C107.813 106.085 105.861 108.846 107.637 108.422C108.287 108.269 110.217 104.322 109.926 103.703C109.666 103.327 109.013 103.201 108.735 103.592L108.732 103.595Z" fill="#00AECD"/>
<path d="M103.798 121.256C104.264 121.643 108.392 123.34 108.749 122.832L108.556 121.865C107.727 121.767 104.361 119.88 103.907 120.075C103.397 120.29 103.373 120.902 103.8 121.252L103.798 121.256Z" fill="#00AECD"/>
<path d="M112.58 123.112C111.424 123.064 111.154 123.851 112.226 124.338C112.724 124.562 115.769 125.157 116.317 125.146C117.255 125.129 117.396 124.318 116.808 123.968C116.623 123.857 112.896 123.126 112.58 123.112Z" fill="#00AECD"/>
<path d="M100.253 93.0937C99.5269 93.1592 98.7786 93.0389 98.682 94.0009L99.1008 94.4206C100.023 94.3401 100.973 94.2616 101.899 94.2801C102.559 94.2929 104.142 95.0356 104.26 93.9306C104.378 92.8256 100.985 93.0271 100.256 93.0932L100.253 93.0937Z" fill="#00AECD"/>
<path d="M83.2111 109.163C82.8085 109.974 85.1812 110.961 85.7287 111.209C86.6336 111.618 89.0049 112.898 88.0112 110.788C86.7524 110.659 85.1614 109.185 84.1339 108.946C83.8663 108.882 83.2959 108.989 83.2111 109.163Z" fill="#00AECD"/>
<path d="M89.9075 101.077C88.5527 100.87 88.5047 104.417 88.6043 105.302C88.7038 106.187 88.792 106.919 89.8322 106.376L89.952 106.106C89.9486 105.582 89.7718 105.081 89.7957 104.553C89.8228 103.884 90.3411 101.693 90.3125 101.508C90.2779 101.283 90.1336 101.113 89.9079 101.08L89.9075 101.077Z" fill="#00AECD"/>
<path d="M141.65 119.232C141.429 119.21 137.995 120.815 137.607 121.058C137.363 121.211 136.914 121.519 137.029 121.862C137.184 122.039 137.413 122.253 137.646 122.279C138.234 122.343 142.278 120.445 142.288 119.804C142.261 119.528 141.889 119.254 141.65 119.232Z" fill="#00AECD"/>
<path d="M104.703 110.198C103.865 110.197 103.265 110.874 102.55 111.196C101.729 111.565 99.4547 112 99.9981 113.065C100.185 113.371 100.404 113.341 100.708 113.278C101.47 113.126 104.736 111.674 104.959 110.969L104.703 110.198Z" fill="#00AECD"/>
<path d="M125.517 124.221C124.134 124.376 122.187 124.075 120.888 124.266C120.068 124.387 120.004 125.257 120.719 125.503C121.795 125.874 124.051 125.224 125.252 125.458C125.804 125.357 125.891 124.552 125.517 124.221Z" fill="#00AECD"/>
<path d="M134.141 123.643L134.173 122.849L133.478 122.531L129.13 123.654C128.714 123.852 128.788 124.592 129.16 124.77C129.824 125.09 133.212 123.805 134.141 123.643Z" fill="#00AECD"/>
<path d="M72.0183 99.4879C70.0003 99.7718 73.1269 102.543 73.6949 102.3C75.0631 101.709 72.6033 99.9781 72.0183 99.4879Z" fill="#00AECD"/>
<path d="M144.983 118.254C145.554 118.551 149.204 115.894 147.117 115.685C146.789 115.652 143.864 117.483 144.983 118.254Z" fill="#00AECD"/>
</svg>
