<svg width="53" height="75" viewBox="0 0 53 75" fill="none" xmlns="http://www.w3.org/2000/svg">
<path fill-rule="evenodd" clip-rule="evenodd" d="M9.21229 20.1569C10.4424 20.5472 11.3093 21.6998 11.3093 23.0231V25.1148C11.3093 25.6209 10.9003 26.0295 10.3936 26.0295H6.20559C5.69888 26.0295 5.28983 25.6209 5.28983 25.1148V23.0231C5.28983 21.6998 6.1598 20.5503 7.38687 20.1569V13.1685L2.31369 11.5311C1.51398 11.275 1.43458 10.1224 2.29843 9.79918L26.1624 0.0663393C26.3914 -0.0251349 26.6386 -0.0190387 26.8492 0.0663393L50.7594 9.82026C51.5469 10.1435 51.4981 11.2716 50.6953 11.5308L41.1658 14.6073L40.3599 21.7543V25.648C42.9454 27.6909 41.8373 31.8376 38.5987 32.3315C36.9321 35.4781 35.1311 37.9083 33.2142 39.5823L34.3741 43.0033H38.7147C46.5751 43.0033 53 49.4247 53 57.2728V69.2373C53 72.4144 50.4115 75 47.2309 75L5.76912 74.997C2.59153 74.997 0 72.4113 0 69.2342V57.2697C0 49.4181 6.42849 43.0003 14.2853 43.0003H18.8883L19.7217 40.189C17.6582 38.4632 15.8786 35.8227 14.3493 32.3194C11.2847 31.8071 10.1186 27.9805 12.4019 25.8492L12.3958 22.8276L11.7059 14.5645L9.20903 13.7596L9.21229 20.1569ZM8.30263 21.8462C7.6555 21.8462 7.12439 22.3767 7.12439 23.0231V24.2H9.48086V23.0231C9.47781 22.3767 8.94669 21.8462 8.30263 21.8462ZM39.2542 15.2235L26.7818 19.2514C26.5926 19.3124 26.3972 19.3063 26.2202 19.2514L13.5986 15.1778L14.1663 22.0138L26.4613 24.7733L38.5976 21.0229L39.2542 15.2235ZM47.7553 10.5645L26.5013 1.89325L5.24725 10.5645L26.5013 17.425L47.7553 10.5645ZM38.5275 22.956L26.7693 26.5874C26.6045 26.6362 26.4366 26.6392 26.2809 26.5996L14.236 23.8981V26.2825C14.236 27.0021 13.6316 26.9777 13.2501 27.7217C12.5969 28.9871 13.5095 30.5482 14.9777 30.5482C15.3654 30.5482 15.7012 30.7921 15.8325 31.1336C17.2671 34.5486 18.891 37.0458 20.6981 38.6283C22.3464 40.0705 24.2695 40.8206 26.4367 40.6529C26.4673 40.6529 26.4917 40.6499 26.5222 40.6499C28.2652 40.5584 29.9349 39.8815 31.5344 38.61C33.6833 36.8568 35.4537 34.4511 37.2058 31.0453C37.3676 30.7312 37.6881 30.5513 38.0178 30.5513C40.0019 30.5513 40.6979 27.9108 38.9824 26.929C38.6894 26.7583 38.5215 26.4534 38.5215 26.1363L38.5275 22.956ZM27.5632 52.3707V63.1643C27.5632 63.6705 27.1542 64.0791 26.6475 64.0791C26.1408 64.0791 25.7317 63.6705 25.7317 63.1643V52.3707L19.1751 56.0875C18.6806 56.3863 18.1006 56.2156 17.8564 55.7399L12.3621 44.9861C6.3793 45.9252 1.83389 51.13 1.83389 57.28V69.2444C1.83389 71.4092 3.6043 73.1778 5.77158 73.1778H47.2357C49.4029 73.1778 51.1734 71.4093 51.1734 69.2444V57.28C51.1734 51.2306 46.7657 46.0836 40.9109 45.0345L35.4409 55.743C35.1967 56.2187 34.6167 56.3925 34.1222 56.0906L27.5632 52.3707ZM31.6779 40.7536C30.0723 41.8055 28.3844 42.3757 26.6169 42.4671C24.6939 42.6135 22.9692 42.2476 21.3026 41.2963L20.6067 43.6441L26.6444 49.5288L32.6669 43.6624L31.6779 40.7536ZM34.0772 44.8333L28.1524 50.6051L34.239 54.0567L38.9519 44.8367C38.8726 44.8367 38.7932 44.8337 38.7138 44.8337L34.0772 44.8333ZM14.3399 44.8333L19.0528 54.0595L25.1394 50.608L19.2146 44.8361L14.3399 44.8333Z" fill="white"/>
</svg>
