<svg width="80" height="80" viewBox="0 0 80 80" fill="none" xmlns="http://www.w3.org/2000/svg">
<path d="M47.5324 67.45C47.5324 66.7391 46.9542 66.1609 46.2433 66.1609H29.8373L34.1615 60.6023C34.3724 60.3328 34.4661 59.989 34.4232 59.6531L31.1185 33.0321H32.681C37.7162 33.0321 42.5833 34.8798 46.384 38.2352C46.9191 38.7078 47.7356 38.657 48.2043 38.1219C48.6769 37.5867 48.6262 36.7742 48.091 36.3016C43.8215 32.5282 38.3488 30.45 32.681 30.45H29.5365C37.2357 29.6805 43.2665 23.1648 43.2665 15.262C43.2665 6.8479 36.4188 0 28.0045 0C19.5904 0 12.7425 6.8477 12.7425 15.262C12.7425 23.1604 18.7737 29.676 26.4725 30.45H23.328C10.465 30.45 0 40.915 0 53.778V67.454C0 68.1649 0.57812 68.7431 1.2891 68.7431H46.2421C46.953 68.7431 47.5312 68.165 47.5312 67.454L47.5324 67.45ZM15.3214 15.262C15.3214 8.2698 21.0089 2.578 28.0054 2.578C34.9976 2.578 40.6894 8.2655 40.6894 15.262C40.6894 22.2542 35.0019 27.946 28.0054 27.946C21.0132 27.946 15.3214 22.2585 15.3214 15.262ZM2.58336 66.16V53.773C2.58336 42.332 11.892 33.027 23.3294 33.027H24.8919L21.5872 59.648C21.5442 59.9878 21.6379 60.3277 21.8489 60.5972L26.1731 66.1558L2.57908 66.1597L2.58336 66.16ZM24.2164 59.4373L27.4976 33.0273H28.521L31.8022 59.4373L28.0131 64.3123L24.224 59.4373H24.2164ZM78.7164 54.2693C80.443 52.4763 80.4352 49.6834 78.689 47.906L78.6148 47.8318C78.1382 47.3474 77.646 46.8435 77.6031 46.6834C77.5562 46.5115 77.7281 45.8318 77.9117 45.0975C78.5132 42.6834 77.1031 40.2655 74.7086 39.6014L74.4508 39.5311C73.8727 39.3709 73.275 39.2068 73.1735 39.1014C73.0289 38.9529 72.8102 38.1795 72.6305 37.5584C71.943 35.1639 69.5172 33.7772 67.1071 34.3982L67.0055 34.4255C66.3454 34.5974 65.6657 34.7732 65.5016 34.7263C65.3298 34.6794 64.8259 34.1911 64.2789 33.6677C62.4898 31.9372 59.693 31.9489 57.9156 33.695L57.8414 33.7693C57.3571 34.2458 56.8531 34.738 56.693 34.781C56.5211 34.8278 55.8415 34.656 55.1071 34.4763C52.6891 33.8747 50.2751 35.2849 49.611 37.6794L49.5837 37.7809C49.4001 38.4372 49.2126 39.1129 49.0954 39.2301C48.9704 39.3551 48.2946 39.5504 47.5681 39.7575C45.1736 40.445 43.7869 42.8708 44.4079 45.2809L44.4352 45.3824C44.6071 46.0426 44.7829 46.7222 44.736 46.8824C44.6892 47.0543 44.2009 47.5582 43.6774 48.1051C41.9508 49.8981 41.9626 52.691 43.7048 54.4684L43.779 54.5427C44.2556 55.027 44.7477 55.5309 44.7907 55.6911C44.8376 55.8629 44.6657 56.5426 44.4821 57.277C43.8805 59.6911 45.2907 62.109 47.6852 62.7731L47.7868 62.8004C48.443 62.984 49.1188 63.1715 49.236 63.2887C49.361 63.4137 49.5563 64.0895 49.7633 64.816C49.8922 65.2613 50.0797 65.6714 50.318 66.0426L45.9039 73.691C45.5523 74.2964 45.5992 75.0504 46.025 75.609C46.4508 76.1676 47.1617 76.4137 47.8414 76.2418L51.193 75.3824L52.1227 78.7183C52.3102 79.3941 52.8844 79.8863 53.5758 79.9761C53.65 79.9839 53.7242 79.9917 53.7945 79.9917C54.4078 79.9917 54.982 79.6675 55.2984 79.1245L60.5953 69.9487C60.8219 69.9839 61.0524 70.0034 61.2828 70.0034C61.4586 70.0034 61.6383 69.9917 61.8141 69.9722L67.0993 79.1245C67.4118 79.6674 67.986 79.9917 68.6032 79.9917C68.6774 79.9917 68.7477 79.9878 68.8219 79.976C69.5172 79.8862 70.0875 79.394 70.275 78.7182L71.2047 75.3823L74.5563 76.2417C75.236 76.4175 75.9469 76.1675 76.3727 75.6089C76.7985 75.0503 76.8454 74.2964 76.4938 73.6909L72.1188 66.1128C72.4118 65.6949 72.6422 65.2183 72.7868 64.6948L72.8141 64.5933C72.9977 63.937 73.1852 63.2613 73.3024 63.1441C73.4274 63.0191 74.1032 62.8237 74.8297 62.6167C77.2242 61.9292 78.6109 59.5034 77.9899 57.0933L77.9625 56.9918C77.7907 56.3316 77.6149 55.652 77.6618 55.4918C77.7086 55.3199 78.1969 54.816 78.7204 54.2691L78.7164 54.2693ZM54.0604 76.0933L53.5252 74.1792C53.2283 73.1206 52.1229 72.48 51.0564 72.7534L49.1306 73.2495L52.3064 67.7495C53.2087 68.144 54.2478 68.2495 55.283 67.98L55.3846 67.9526C56.0447 67.7807 56.7244 67.6089 56.8885 67.6518C57.0603 67.6987 57.5642 68.187 58.1112 68.7104C58.158 68.7534 58.2049 68.7964 58.2518 68.8393L54.0643 76.0932L54.0604 76.0933ZM73.2514 73.2495L71.3256 72.7534C70.2631 72.48 69.1537 73.1167 68.8568 74.1792L68.3216 76.0933L64.1888 68.9371C64.2865 68.859 64.3802 68.773 64.47 68.6832L64.5443 68.609C65.0286 68.1324 65.5325 67.6402 65.6927 67.5973C65.8645 67.5504 66.5442 67.7223 67.2786 67.902C68.2434 68.1403 69.2083 68.0621 70.0598 67.7262L73.2473 73.2457L73.2514 73.2495ZM76.853 52.4875C74.9116 54.5031 74.7788 54.9836 75.4624 57.6359L75.4897 57.7375C75.7553 58.7687 75.1381 59.843 74.103 60.1437C71.4116 60.9171 71.06 61.2687 70.3257 63.9093L70.2984 64.0108C70.0132 65.0342 68.9429 65.6592 67.8961 65.4014C65.1773 64.7256 64.6969 64.8545 62.7438 66.7725L62.6695 66.8467C61.9078 67.5928 60.6695 67.5967 59.8922 66.8506C58.5758 65.5811 57.9156 65.0851 56.8727 65.0851C56.322 65.0851 55.6618 65.2257 54.7438 65.464L54.6423 65.4913C53.615 65.7569 52.5368 65.1397 52.2361 64.1046C51.4626 61.4132 51.1111 61.0616 48.4705 60.3273L48.3689 60.3C47.3455 60.0148 46.7205 58.9445 46.9783 57.8977C47.6541 55.1829 47.5252 54.6985 45.6072 52.7454L45.533 52.6711C44.7869 51.9133 44.783 50.6711 45.5291 49.8938C47.4705 47.8782 47.6033 47.3977 46.9197 44.7454L46.8923 44.6439C46.6267 43.6127 47.2439 42.5384 48.2791 42.2377C50.9705 41.4642 51.3221 41.1127 52.0564 38.4721L52.0837 38.3705C52.3689 37.3471 53.4392 36.7221 54.486 36.9799C57.2008 37.6557 57.6852 37.5268 59.6383 35.6088L59.7125 35.5346C60.4742 34.7885 61.7125 34.7846 62.4898 35.5307C64.5054 37.4721 64.9859 37.6049 67.6382 36.9213L67.7398 36.8939C68.771 36.6283 69.8453 37.2455 70.1421 38.265C70.9116 40.9447 71.2827 41.3275 73.7554 42.0111L74.0093 42.0815C75.0327 42.3666 75.6577 43.437 75.3999 44.4838C74.7241 47.1986 74.853 47.683 76.771 49.6361L76.8452 49.7103C77.5913 50.4681 77.5952 51.7103 76.8491 52.4876L76.853 52.4875ZM61.193 40.4135C55.2516 40.4135 50.42 45.2455 50.42 51.1865C50.42 57.1279 55.252 61.9595 61.193 61.9595C67.134 61.9595 71.966 57.1275 71.966 51.1865C71.966 45.2451 67.134 40.4135 61.193 40.4135ZM61.193 59.3785C56.6735 59.3785 53.0016 55.7027 53.0016 51.1871C53.0016 46.6676 56.6774 42.9957 61.193 42.9957C65.7125 42.9957 69.3844 46.6715 69.3844 51.1871C69.3844 55.7066 65.7086 59.3785 61.193 59.3785ZM66.1266 47.5155C66.6227 48.0233 66.6148 48.8397 66.107 49.3397L60.1461 55.1678C59.9039 55.4022 59.5797 55.535 59.2438 55.535C59.2204 55.535 59.1969 55.535 59.1696 55.5311C58.8063 55.5116 58.4703 55.3397 58.2438 55.0584L55.4469 51.6287C54.9977 51.0779 55.0797 50.2654 55.6305 49.8123C56.1852 49.3631 56.9938 49.4451 57.4469 49.9959L59.3492 52.3318L64.2984 47.492C64.8062 46.9959 65.6226 47.0037 66.1226 47.5115L66.1266 47.5155Z" fill="white"/>
</svg>
